<svg xmlns="http://www.w3.org/2000/svg" role="img" viewBox="77.81 109.81 685.88 143.88"><path fill="#fcfcfc" d="M0 0v376h848V0H0z"/><path fill="#a5a7ad" d="M139 123l.778.722.528.028.75.194.916.028L144 124l-.778-.722-.528-.028-.75-.194-.916-.028L139 123z"/><path fill="#96989f" d="M221 123l.778.722.472.028.806.194L225 124l-.778-.722-.472-.028-.806-.194L221 123m90 0l.778.722.472.028.806.194L315 124l-.778-.722-.472-.028-.806-.194L311 123z"/><path fill="#c4c5c9" d="M315 123l1 1-1-1z"/><path fill="#adaeb4" d="M375 123l.778.722.472.028.806.194L379 124l-.778-.722-.472-.028-.806-.194L375 123z"/><path fill="#a1a3a9" d="M533 123l.778.722.472.028.806.194L537 124l-.778-.722-.472-.028-.806-.194L533 123z"/><path fill="#9798a0" d="M639 123l.778.722.472.028.806.194L643 124l-.778-.722-.472-.028-.806-.194L639 123z"/><path fill="#cacbce" d="M643 123l1 1-1-1z"/><path fill="#9798a0" d="M741 123l.778.722.472.028.806.194L745 124l-.778-.722-.472-.028-.806-.194L741 123z"/><path fill="#81838c" d="M137 124l1 1-1-1z"/><path fill="#313443" d="M141 149l1.167 1.5.25.556.555 1 .389.944.445 1 .388 1 .806 2 .806 2 .388 1 .417 1 .778 2 .805 2 .417 1 .778 2 .417 1 .805 2 .778 2 .417 1 .805 2 .778 2 .417 1 .805 2 .778 2 .861 2 .5 1 .417 1 .833 2 .389 1 .805 2 .417 1 .778 2 .417 1 .805 2 .778 2 .805 2 .417 1 .778 2 .417 1 .805 2 .778 2 .417 1 .805 2 .778 2 .805 2 .417 1 .778 2 .417 1 .805 2 .778 2 .417 1 .388 1 .806 2 .389 1 .417 1 .805 2 .806 2 1.083 1.917.75.833.833.75 1.917 1 2 .417h2l1-.167 1.917-.694 1.583-1.306 1-1.778.417-1.972.055-1-.055-2-.389-2-.778-2-.5-1-.861-2-.389-1-.389-1-.417-1-.805-2-.778-2-.861-2-.5-1-.861-2-.778-2-.861-2-.5-1-.861-2-.778-2-.417-1-.805-2-.778-2-.861-2-.5-1-.861-2-.778-2-.805-2-.417-1-.778-2-.861-2-.5-1-.861-2-.778-2-.861-2-.5-1-.861-2-.778-2-.805-2-.417-1-.778-2-.861-2-.5-1-.861-2-.778-2-.417-1-.805-2-.778-2-.861-2-.5-1-.861-2-.778-2-.861-2-.5-1-.861-2-.778-2-.805-2-.417-1-.778-2-.861-2-.5-1-.417-1-.444-1-.806-2-.5-1-1.333-1.889-1.778-1.389-1.972-.611-1-.083-2 .055-1.917.417-1.666 1-1.389 1.583-1.139 1.917-.472 1-.806 2-.805 2-.417 1-.778 2-.861 2-.5 1-.861 2-.778 2-.861 2-.5 1-.861 2-.778 2-.417 1-.805 2-.778 2-.861 2-.5 1-.861 2-.778 2-.417 1-.805 2-.778 2-.861 2-.5 1-.861 2-.778 2-.861 2-.5 1-.861 2-.778 2-.417 1-.805 2-.778 2-.861 2-.5 1-.861 2-.778 2-.805 2-.417 1-.778 2-.861 2-.5 1-.861 2-.778 2-.861 2-.5 1-.8611 2-.7778 2-.4167 1-.8055 2-.7778 2-.8611 2-.5 1-.8611 2-.7778 2-.8055 2-.4167 1-.6945 2-.4444 2-.0833 1 .3333 2 1 1.972 1.5833 1.695.9445.611.9722.389 1 .222 2 .083 1-.055 1.917-.417 1.666-1 .695-.75.639-.833 1.027-1.917.417-1 .889-2 .917-2 .444-1 .778-2 .805-2 .417-1 .778-2 .417-1 .805-2 .778-2 .417-1 .805-2 .778-2 .444-1 .417-1 .5-1 .861-2 .778-2 .805-2 .417-1 .778-2 .805-2 .417-1 .778-2 .417-1 .805-2 .778-2 .861-2 .5-1 .417-1 .444-1 .778-2 .805-2 .417-1 .778-2 .805-2 .417-1 .778-2 .417-1 .805-2 .778-2 .861-2 .5-1 .861-2 .778-2 .805-2 .417-1 .778-2 .417-1 .805-2 .722-1.944.223-.556.444-1.5z"/><path fill="#b9babf" d="M145 124l1 1-1-1z"/><path fill="#bebfc3" d="M218 124l1 1-1-1z"/><path fill="#313443" d="M269 218h-2l-.278-1.5-.194-.556-.722-1.944-.417-1-.778-2-.417-1-.805-2-.778-2-.861-2-.5-1-.861-2-.778-2-.805-2-.417-1-.778-2-.417-1-.805-2-.778-2-.861-2-.5-1-.861-2-.778-2-.805-2-.417-1-.778-2-.861-2-.5-1-.861-2-.778-2-.417-1-.805-2-.778-2-.861-2-.5-1-.861-2-.778-2-.417-1-.805-2-.389-1-.833-2-.417-1-.5-1-.861-2-.778-2-.417-1-.805-2-.778-2-.861-2-.5-1-.861-2-.778-2-.417-1-.805-2-.806-2-1.083-1.917-.75-.833-.833-.75-1.917-1-1-.25-1-.167-2-.055-1.972.305-.945.389-1.583 1.389-1 1.889-.333 2 .083 1 .444 2 .695 2 .417 1 .805 2 .778 2 .861 2 .5 1 .861 2 .778 2 .861 2 .528 1 .444 1 .528 1 .861 2 .778 2 .861 2 .5 1 .861 2 .778 2 .861 2 .528 1 .972 2 .861 2 .778 2 .861 2 .5 1 .861 2 .778 2 .861 2 .528 1 .972 2 .861 2 .778 2 .861 2 .5 1 .861 2 .778 2 .861 2 .5 1 .861 2 .778 2 .861 2 .528 1 .972 2 .417 1 .444 1 .778 2 .861 2 .5 1 .861 2 .778 2 .444 1 .417 1 .972 2 .528 1 .861 2 .778 2 .861 2 .5 1 .861 2 .389 1 .889 2 1.139 1.917 1.389 1.583 1.666 1 .945.25 1.972.194 2-.194.972-.25 1.778-1 .778-.75 1.222-1.778 1-1.972.417-1 .444-1 .778-2 .861-2 .528-1 .972-2 .861-2 .778-2 .861-2 .5-1 .861-2 .778-2 .444-1 .945-2 .444-1 .528-1 .861-2 .778-2 .861-2 .5-1 .861-2 .778-2 .861-2 .528-1 .972-2 .417-1 .444-1 .778-2 .861-2 .5-1 .861-2 .778-2 .861-2 .5-1 .861-2 .778-2 .861-2 .528-1 .972-2 .861-2 .778-2 .861-2 .5-1 .861-2 .778-2 .861-2 .972-2 .528-1 .861-2 .778-2 .861-2 .5-1 .861-2 .778-2 .861-2 .5-1 .861-2 .778-2 .778-2 .361-1 .222-1 .194-2-.055-1-.222-1-.389-.972-1.389-1.695-.917-.611-.972-.389-2-.305-2 .055-1.972.417-1.778 1-.75.75-1.083 1.778L306 129l-.389 1-.861 2-.5 1-.861 2-.778 2-.861 2-.5 1-.861 2-.778 2-.417 1-.805 2-.778 2-.861 2-.5 1-.861 2-.778 2-.861 2-.5 1-.861 2-.778 2-.861 2-.5 1-.861 2-.778 2-.805 2-.417 1-.778 2-.861 2-.5 1-.861 2-.778 2-.861 2-.5 1-.861 2-.778 2-.417 1-.805 2-.778 2-.861 2-.5 1-.861 2-.778 2-.861 2-.5 1-.861 2-.778 2-.861 2-.5 1-.861 2-.695 1.944-.444 1.556-.25 1.5z"/><path fill="#72747f" d="M226 124l1 1-1-1z"/><path fill="#7b7d86" d="M309 124l1 1-1-1z"/><path fill="#a4a6ac" d="M317 124l1 1-1-1z"/><path fill="#888992" d="M373 124l1 1-1-1z"/><path fill="#313443" d="M385 225v-92l-.028-1-.222-2-.25-1-1-1.972-1.583-1.695-.945-.611-.972-.389-2-.305h-1l-1 .055-1.917.417-1.666 1-.695.75-.611.833-.805 1.917-.195 1-.111 2v100l.083 2 .167 1 .25.972 1 1.778 1.583 1.306.945.444 1.972.417 2 .083h61l1-.028 1-.083 1.972-.611 1.778-1.389 1.306-1.889.444-1 .333-2-.305-2-.806-1.917-1.194-1.583-1.611-1.083-1.917-.723-2-.472-1-.139-2-.083h-51z"/><path fill="#cccdd0" d="M381 124l1 1-1-1z"/><path fill="#6f717c" d="M531 124l1 1-1-1z"/><path fill="#313443" d="M535 149l1 1.5.222.556.556 1 .389.944.444 1 .778 2 .805 2 .417 1 .778 2 .417 1 .805 2 .778 2 .417 1 .805 2 .778 2 .417 1 .805 2 .778 2 .417 1 .805 2 .778 2 .861 2 .5 1 .861 2 .778 2 .805 2 .417 1 .778 2 .805 2 .417 1 .778 2 .417 1 .805 2 .778 2 .805 2 .417 1 .778 2 .417 1 .388 1 .806 2 .806 2 .388 1 .417 1 .778 2 .805 2 .417 1 .778 2 .417 1 .805 2 .778 2 .417 1 .805 2 .778 2 .444 1 1.028 2 1.389 1.889 1.778 1.389 1.972.611 2 .083 1-.083 1-.195.972-.333.945-.472 1.583-1.306 1-1.666.417-1.917v-2l-.334-2-.277-1-.695-2-.861-2-.5-1-.861-2-.778-2-.861-2-.5-1-.861-2-.778-2-.805-2-.417-1-.778-2-.861-2-.5-1-.861-2-.778-2-.417-1-.805-2-.778-2-.861-2-.5-1-.861-2-.778-2-.861-2-.5-1-.861-2-.778-2-.805-2-.417-1-.778-2-.861-2-.5-1-.861-2-.778-2-.805-2-.417-1-.778-2-.861-2-.5-1-.861-2-.778-2-.861-2-.5-1-.861-2-.778-2-.805-2-.417-1-.778-2-.861-2-.5-1-.861-2-.778-2-.805-2-.417-1-.778-2-.861-2-.528-1-1-2-.472-.972-1.222-1.778-.778-.75-1.778-1-1.972-.417-1-.027-1 .027-1.972.417-1.778 1-.778.75-1.222 1.778-1 1.972-.417 1-.444 1-.778 2-.861 2-.5 1-.861 2-.778 2-.805 2-.417 1-.778 2-.861 2-.5 1-.417 1-.444 1-.778 2-.417 1-.805 2-.778 2-.861 2-.5 1-.861 2-.778 2-.861 2-.5 1-.861 2-.778 2-.417 1-.805 2-.778 2-.861 2-.5 1-.861 2-.778 2-.417 1-.805 2-.778 2-.861 2-.5 1-.861 2-.778 2-.861 2-.5 1-.861 2-.778 2-.805 2-.417 1-.778 2-.861 2-.5 1-.861 2-.778 2-.805 2-.417 1-.778 2-.861 2-.5 1-.861 2-.778 2-.417 1-.722 2-.361 2 .139 2 .25 1 1 1.972.75.917 1.778 1.389.972.389 2 .305 2-.083 1-.222.972-.389 1.778-1.389 1.389-1.889.611-1 .472-1 .528-1 .861-2 .778-2 .805-2 .417-1 .778-2 .805-2 .417-1 .778-2 .417-1 .805-2 .778-2 .861-2 .5-1 .417-1 .444-1 .778-2 .805-2 .417-1 .778-2 .805-2 .417-1 .778-2 .417-1 .805-2 .778-2 .861-2 .5-1 .861-2 .778-2 .805-2 .417-1 .778-2 .805-2 .417-1 .778-2 .417-1 .805-2 .778-2 .861-2 .5-1 .861-2 .778-2 .805-2 .417-1 .778-2 .417-1 .805-2 .778-2 .417-.944.388-1 .306-.556.5-1.5z"/><path fill="#60626e" d="M538 124l1 1-1-1z"/><path fill="#cfcfd3" d="M539 124l1 1-1-1z"/><path fill="#9798a0" d="M637 124l1 1-1-1z"/><path fill="#313443" d="M649 160l1.222 1.5.972 1.556.556.944.472 1 .556 1 .444 1 .556 1 .444 1 .556 1 .444 1 1 2 .556 1 .444 1 .556 1 .444 1 .556 1 .444 1 1 2 .556 1 .444 1 .556 1 .444 1 .556 1 .444 1 1 2 .556 1 .444 1 .556 1 .444 1 .556 1 .444 1 .556 1 .444 1 .556 1 .444 1 .556 1 .444 1 .556 1 .444 1 1 2 .556 1 .444 1 .556 1 .444 1 .556 1 .444 1 .556 1 .444 1 .556 1 .444 1 .556 1 .444 1 1 2 .556 1 .444 1 .556 1 .444 1 .556 1 .444 1 .556 1 .444 1 .556 1 .444 1 .556 1 .472 1 1.222 1.917.778.833.833.75 1.917 1 1 .222 2 .028 1-.167 1.972-.694.945-.528 1.611-1.472L699.75 231l1.028-2 .444-1 .556-1 .444-1 1-2 .556-1 .444-1 .945-2 .444-1 .778-2 .444-1 .417-1 .972-2 .556-1 .444-1 .556-1 .444-1 .556-1 1-2 .444-1 .556-1 .444-1 .556-1 .444-1 .556-1 .444-1 .556-1 .444-1 .556-1 .444-1 .556-1 .444-1 .556-1 1-2 .444-1 .556-1 .444-1 .556-1 .444-1 .556-1 .444-1 .556-1 .444-1 .556-1 .444-1 1-2 .556-1 .444-1 .556-1 .444-1 .556-1 .444-1 .556-1 .972-2 .417-1 .444-1 .778-2 .861-2 .917-1.944.333-.556.5-1.5.722 1.5.028.556.194 1 .028.944.028 1v69l.083 2 .417 1.972 1 1.778.75.75 1.778 1 1.972.417h2l2-.417 1.889-1 .805-.75 1.195-1.778.389-.972.305-1 .334-2 .055-1 .028-1v-96l-.028-2-.055-1-.417-2-.444-1-.556-.972-1.583-1.695-.945-.611-.972-.389-1-.222-2-.083-1 .055-1.972.417-1.778 1-.778.75-1.222 1.778-.472.972-1 2-.556 1-.444 1-.556 1-.444 1-.556 1-.444 1-.556 1-.444 1-1 2-.556 1-.444 1-.556 1-.444 1-.556 1-.972 2-.417 1-.444 1-.778 2-.861 2-.528 1-.444 1-.556 1-.444 1-.556 1-.444 1-1 2-.556 1-.444 1-.556 1-.444 1-.556 1-.444 1-.556 1-.444 1-1 2-.556 1-.444 1-.556 1-.444 1-.556 1-.444 1-.556 1-.444 1-1 2-.528 1-.417 1-.444 1-.778 2-.444 1-.417 1-.528 1-1 2-.444 1-.556 1-.444 1-1 2-.556 1-.444 1-.556 1-.444 1-.556 1-.444 1-.556 1-.444 1-.556 1-1 2-.444 1-.556 1-.444 1-.528 1-.778 1.944-.389 1.556L694 217l-1.222-.778-.361-.528-.611-.805-1.028-1.889-1-2-.556-1-.444-1-.556-1-.444-1-1-2-.556-1-.444-1-.556-1-.444-1-.556-1-1-2-.444-1-.556-1-.444-1-.556-1-.444-1-.556-1-.444-1-.556-1-1-2-.444-1-.556-1-.972-2-.417-1-.444-1-.778-2-.861-2-.528-1-.444-1-.556-1-.444-1-.556-1-.444-1-1-2-.556-1-.444-1-1-2-.556-1-.444-1-.556-1-.444-1-.556-1-.444-1-.556-1-.444-1-.556-1-.444-1-.556-1-.444-1-.556-1-.444-1-.556-1-1-2-.444-1-.556-1-.444-1-.556-1-.444-1-.556-1-1-2-.444-1-.556-1-1-2-.444-1-.556-1-.444-1-.556-1-1-2-.472-1-1.222-2-1.611-1.889-1.917-1.389-2-.611-1-.083h-1l-1 .083-2 .611-1.889 1.389-.778.917-.611.972-.389 1-.222 1-.111 2v99l.028 2 .305 2 .389 1 .611.972.778.917 1.889 1.389 2 .611 1 .083h1l1-.055 1.917-.417 1.666-1 1.306-1.583.805-1.917.195-1 .083-1 .028-2v-71z"/><path fill="#9798a0" d="M645 124l1 1-1-1z"/><path fill="#7d7f89" d="M739 124l1 1-1-1z"/><path fill="#bcbdc2" d="M747 124l1 1-1-1z"/><path fill="#a7a8ae" d="M146 125l1 1-1-1z"/><path fill="#a5a7ad" d="M217 125l1 1-1-1z"/><path fill="#c0c0c5" d="M307 125l1 1-1-1z"/><path fill="#757781" d="M318 125l1 1-1-1z"/><path fill="#a4a5ab" d="M382 125l1 1-1-1z"/><path fill="#c7c8cc" d="M540 125l1 1-1-1z"/><path fill="#646671" d="M636 125l1 1-1-1z"/><path fill="#7d7f89" d="M646 125l1 1-1-1z"/><path fill="#9798a0" d="M748 125l1 1-1-1z"/><path fill="#5e606c" d="M135 126l1 1-1-1z"/><path fill="#bebfc3" d="M147 126l1 1-1-1z"/><path fill="#a5a7ad" d="M319 126l1 1-1-1z"/><path fill="#5e606c" d="M371 126l1 1-1-1z"/><path fill="#bbbcc1" d="M383 126l1 1-1-1z"/><path fill="#71737d" d="M635 126l1 1-1-1z"/><path fill="#898b94" d="M647 126l1 1-1-1z"/><path fill="#b0b1b6" d="M749 126l1 1-1-1z"/><path fill="#abacb2" d="M134 127l1 1-1-1z"/><path fill="#757781" d="M216 127l1 1-1-1z"/><path fill="#a0a1a8" d="M306 127l1 1-1-1z"/><path fill="#9e9fa6" d="M370 127l1 1-1-1z"/><path fill="#81828c" d="M528 127l1 1-1-1z"/><path fill="#6e707b" d="M541 127l1 1-1-1z"/><path fill="#bcbdc2" d="M634 127l1 1-1-1m14 0l1 1-1-1z"/><path fill="#898b94" d="M736 127l1 1-1-1z"/><path fill="#a3a4ab" d="M148 128l1 1-1-1z"/><path fill="#abacb2" d="M230 128l1 1-1-1z"/><path fill="#adaeb4" d="M320 128v4l.722-.778.167-1.222-.167-.722v-.5L320 128z"/><path fill="#989aa1" d="M384 128l1 1-1-1z"/><path fill="#cccdd0" d="M542 128l1 1-1-1z"/><path fill="#a3a4ab" d="M750 128l1 1-1-1z"/><path fill="#a8a9af" d="M133 129l1 1-1-1z"/><path fill="#c3c4c8" d="M305 129l1 1-1-1z"/><path fill="#a1a3a9" d="M369 129v106l.722-.778.028-.528.194-.805.028-.917L370 230v-96l-.028-1.972-.028-.917-.194-.805-.028-.528L369 129z"/><path fill="#7d7f89" d="M527 129l1 1-1-1z"/><path fill="#6e707b" d="M542 129l1 1-1-1z"/><path fill="#b0b1b6" d="M649 129l1 1-1-1z"/><path fill="#7d7f88" d="M735 129l1 1-1-1z"/><path fill="#bcbcc1" d="M149 130l1 1-1-1z"/><path fill="#cccdd0" d="M231 130l1 1-1-1z"/><path fill="#6c6e79" d="M305 130l1 1-1-1z"/><path fill="#c9cace" d="M633 130v104l.722-.778.028-.528.194-.805.028-.917L634 229v-94l-.028-1.972-.028-.917-.194-.805-.028-.528L633 130z"/><path fill="#c8c9cd" d="M132 131l1 1-1-1z"/><path fill="#666873" d="M149 131l1 1-1-1z"/><path fill="#797b84" d="M231 131l1 1-1-1z"/><path fill="#9e9fa6" d="M526 131l1 1-1-1z"/><path fill="#8f9199" d="M543 131l1 1-1-1z"/><path fill="#b0b1b6" d="M650 131l1 1-1-1z"/><path fill="#7d7f88" d="M734 131l1 1-1-1z"/><path fill="#73757f" d="M132 132l1 1-1-1z"/><path fill="#676974" d="M216 132l1 1-1-1z"/><path fill="#8c8d96" d="M304 132l1 1-1-1z"/><path fill="#868891" d="M150 133l1 1-1-1z"/><path fill="#a4a5ab" d="M216 133l1 1-1-1z"/><path fill="#9b9ca3" d="M232 133l1 1-1-1z"/><path fill="#80828b" d="M319 133l1 1-1-1z"/><path fill="#c0c0c5" d="M525 133l1 1-1-1z"/><path fill="#b0b1b6" d="M544 133l1 1-1-1m107 0l1 1-1-1z"/><path fill="#7d7f88" d="M733 133l1 1-1-1z"/><path fill="#95969e" d="M131 134l1 1-1-1z"/><path fill="#abacb2" d="M303 134l1 1-1-1z"/><path fill="#6a6c77" d="M525 134l1 1-1-1z"/><path fill="#a8a9af" d="M151 135l1 1-1-1z"/><path fill="#7c7e87" d="M217 135l1 1-1-1z"/><path fill="#bcbdc2" d="M233 135l1 1-1-1z"/><path fill="#5e616c" d="M318 135l1 1-1-1z"/><path fill="#b0b1b6" d="M652 135l1 1-1-1z"/><path fill="#96989f" d="M732 135l1 1-1-1z"/><path fill="#b5b6bb" d="M130 136l1 1-1-1z"/><path fill="#676974" d="M233 136l1 1-1-1z"/><path fill="#cacbce" d="M302 136l1 1-1-1z"/><path fill="#b8b9be" d="M318 136l1 1-1-1z"/><path fill="#8b8d95" d="M524 136l1 1-1-1z"/><path fill="#7b7d86" d="M545 136l1 1-1-1z"/><path fill="#60626e" d="M130 137l1 1-1-1z"/><path fill="#c8c9cd" d="M152 137l1 1-1-1z"/><path fill="#626570" d="M218 137l1 1-1-1z"/><path fill="#747680" d="M302 137l1 1-1-1z"/><path fill="#b0b1b6" d="M653 137l1 1-1-1z"/><path fill="#96989f" d="M731 137l1 1-1-1z"/><path fill="#72747f" d="M152 138l1 1-1-1z"/><path fill="#bcbcc1" d="M218 138l1 1-1-1z"/><path fill="#898b94" d="M234 138l1 1-1-1z"/><path fill="#9d9fa6" d="M317 138l1 1-1-1z"/><path fill="#acadb3" d="M523 138l1 1-1-1z"/><path fill="#9c9da4" d="M546 138l1 1-1-1z"/><path fill="#81828c" d="M129 139l1 1-1-1z"/><path fill="#93949c" d="M301 139l1 1-1-1z"/><path fill="#b0b1b6" d="M654 139l1 1-1-1z"/><path fill="#96989f" d="M730 139l1 1-1-1z"/><path fill="#94959d" d="M153 140l1 1-1-1z"/><path fill="#a2a3aa" d="M219 140l1 1-1-1z"/><path fill="#acadb3" d="M235 140l1 1-1-1z"/><path fill="#83858e" d="M316 140l1 1-1-1z"/><path fill="#cdced1" d="M522 140l1 1-1-1z"/><path fill="#bdbec3" d="M547 140l1 1-1-1z"/><path fill="#a1a3a9" d="M128 141l1 1-1-1z"/><path fill="#b2b3b9" d="M300 141l1 1-1-1z"/><path fill="#777983" d="M522 141l1 1-1-1z"/><path fill="#676974" d="M547 141l1 1-1-1z"/><path fill="#b0b1b6" d="M655 141l1 1-1-1z"/><path fill="#96989f" d="M729 141l1 1-1-1z"/><path fill="#b4b5bb" d="M154 142l1 1-1-1z"/><path fill="#898a93" d="M220 142l1 1-1-1z"/><path fill="#cecfd2" d="M236 142l1 1-1-1z"/><path fill="#696b76" d="M315 142l1 1-1-1z"/><path fill="#c3c4c8" d="M127 143l1 1-1-1z"/><path fill="#5e616c" d="M154 143l1 1-1-1z"/><path fill="#797b84" d="M236 143l1 1-1-1z"/><path fill="#c2c3c7" d="M315 143l1 1-1-1z"/><path fill="#989aa1" d="M521 143l1 1-1-1z"/><path fill="#888992" d="M548 143l1 1-1-1z"/><path fill="#b0b1b6" d="M656 143l1 1-1-1m72 0l1 1-1-1z"/><path fill="#6e707a" d="M127 144l1 1-1-1z"/><path fill="#6e707b" d="M221 144l1 1-1-1z"/><path fill="#7c7e87" d="M299 144l1 1-1-1z"/><path fill="#80828b" d="M155 145l1 1-1-1z"/><path fill="#c7c8cc" d="M221 145l1 1-1-1z"/><path fill="#9b9ca3" d="M237 145l1 1-1-1z"/><path fill="#a8a9af" d="M314 145l1 1-1-1z"/><path fill="#b9babf" d="M520 145l1 1-1-1z"/><path fill="#a9aab1" d="M549 145l1 1-1-1z"/><path fill="#b0b1b6" d="M657 145l1 1-1-1m70 0l1 1-1-1z"/><path fill="#8e9098" d="M126 146l1 1-1-1z"/><path fill="#9b9ca3" d="M298 146l1 1-1-1z"/><path fill="#646671" d="M520 146l1 1-1-1z"/><path fill="#a0a2a9" d="M156 147l1 1-1-1z"/><path fill="#aeafb5" d="M222 147l1 1-1-1z"/><path fill="#bdbec3" d="M238 147l1 1-1-1z"/><path fill="#8e9098" d="M313 147l1 1-1-1z"/><path fill="#cacbce" d="M550 147l1 1-1-1z"/><path fill="#b0b1b6" d="M658 147l1 1-1-1m68 0l1 1-1-1z"/><path fill="#afb0b6" d="M125 148l1 1-1-1z"/><path fill="#696b76" d="M238 148l1 1-1-1z"/><path fill="#babbc0" d="M297 148l1 1-1-1z"/><path fill="#858790" d="M519 148l1 1-1-1z"/><path fill="#757781" d="M550 148l1 1-1-1z"/><path fill="#c2c3c7" d="M157 149l1 1-1-1z"/><path fill="#95969e" d="M223 149l1 1-1-1z"/><path fill="#646671" d="M297 149l1 1-1-1z"/><path fill="#747680" d="M312 149l1 1-1-1z"/><path fill="#c5c6ca" d="M535 149l1 1-1-1z"/><path fill="#b0b1b6" d="M659 149l1 1-1-1m66 0l1 1-1-1z"/><path fill="#d0d1d4" d="M124 150l1 1-1-1z"/><path fill="#696b76" d="M140 150l1 1-1-1z"/><path fill="#777983" d="M142 150l1 1-1-1z"/><path fill="#6c6e79" d="M157 150l1 1-1-1z"/><path fill="#8b8d95" d="M239 150l1 1-1-1z"/><path fill="#cdced1" d="M312 150l1 1-1-1z"/><path fill="#a6a7ae" d="M518 150l1 1-1-1z"/><path fill="#92949c" d="M534 150l1 1-1-1z"/><path fill="#95979e" d="M551 150l1 1-1-1z"/><path fill="#7a7c86" d="M124 151l1 1-1-1z"/><path fill="#bcbdc2" d="M140 151l1 1-1-1z"/><path fill="#c9cace" d="M142 151l1 1-1-1z"/><path fill="#7b7d86" d="M224 151l1 1-1-1z"/><path fill="#84868e" d="M296 151l1 1-1-1z"/><path fill="#a0a1a8" d="M536 151l1 1-1-1z"/><path fill="#b0b1b6" d="M660 151l1 1-1-1z"/><path fill="#bcbdc2" d="M724 151l1 1-1-1z"/><path fill="#8d8e96" d="M158 152l1 1-1-1z"/><path fill="#acaeb3" d="M240 152l1 1-1-1z"/><path fill="#b3b4b9" d="M311 152l1 1-1-1z"/><path fill="#c7c7cb" d="M517 152l1 1-1-1z"/><path fill="#6d6f79" d="M533 152l1 1-1-1z"/><path fill="#b6b7bc" d="M552 152l1 1-1-1z"/><path fill="#646671" d="M724 152l1 1-1-1z"/><path fill="#9c9da4" d="M123 153l1 1-1-1z"/><path fill="#9798a0" d="M139 153l1 1-1-1z"/><path fill="#a1a3a9" d="M143 153l1 1-1-1z"/><path fill="#61636f" d="M225 153l1 1-1-1z"/><path fill="#a3a4ab" d="M295 153l1 1-1-1z"/><path fill="#71747e" d="M517 153l1 1-1-1z"/><path fill="#c0c1c6" d="M533 153l1 1-1-1z"/><path fill="#787a84" d="M537 153l1 1-1-1z"/><path fill="#60626e" d="M552 153l1 1-1-1z"/><path fill="#b0b1b6" d="M661 153l1 1-1-1z"/><path fill="#c9cace" d="M723 153l1 1-1-1z"/><path fill="#adaeb4" d="M159 154l1 1-1-1z"/><path fill="#babbc0" d="M225 154l1 1-1-1z"/><path fill="#cfcfd3" d="M241 154l1 1-1-1z"/><path fill="#989aa1" d="M310 154l1 1-1-1z"/><path fill="#cacbce" d="M537 154l1 1-1-1z"/><path fill="#646671" d="M723 154l1 1-1-1z"/><path fill="#bcbdc2" d="M122 155l1 1-1-1z"/><path fill="#71747e" d="M138 155l1 1-1-1z"/><path fill="#797b85" d="M144 155l1 1-1-1z"/><path fill="#7a7c86" d="M241 155l1 1-1-1z"/><path fill="#c2c3c7" d="M294 155l1 1-1-1z"/><path fill="#92949c" d="M516 155l1 1-1-1z"/><path fill="#9b9ca3" d="M532 155l1 1-1-1z"/><path fill="#81838c" d="M553 155l1 1-1-1z"/><path fill="#b0b1b6" d="M662 155l1 1-1-1z"/><path fill="#c9cace" d="M722 155l1 1-1-1z"/><path fill="#676974" d="M122 156l1 1-1-1z"/><path fill="#c5c6ca" d="M138 156l1 1-1-1z"/><path fill="#cbccd0" d="M144 156l1 1-1-1z"/><path fill="#cecfd2" d="M160 156l1 1-1-1z"/><path fill="#a0a2a9" d="M226 156l1 1-1-1z"/><path fill="#6c6e79" d="M294 156l1 1-1-1z"/><path fill="#7e8089" d="M309 156l1 1-1-1z"/><path fill="#a2a3aa" d="M538 156l1 1-1-1z"/><path fill="#646671" d="M722 156l1 1-1-1z"/><path fill="#797b84" d="M160 157l1 1-1-1z"/><path fill="#9c9ea5" d="M242 157l1 1-1-1z"/><path fill="#b4b5ba" d="M515 157l1 1-1-1z"/><path fill="#767882" d="M531 157l1 1-1-1z"/><path fill="#a2a3aa" d="M554 157l1 1-1-1z"/><path fill="#b0b1b6" d="M663 157l1 1-1-1z"/><path fill="#c9cace" d="M721 157l1 1-1-1z"/><path fill="#888992" d="M121 158l1 1-1-1z"/><path fill="#a0a2a9" d="M137 158l1 1-1-1z"/><path fill="#a4a5ab" d="M145 158l1 1-1-1z"/><path fill="#878991" d="M227 158l1 1-1-1z"/><path fill="#8b8d95" d="M293 158l1 1-1-1z"/><path fill="#656772" d="M308 158l1 1-1-1z"/><path fill="#5e606c" d="M515 158l1 1-1-1z"/><path fill="#cacbce" d="M531 158l1 1-1-1z"/><path fill="#7a7c86" d="M539 158l1 1-1-1z"/><path fill="#646671" d="M721 158l1 1-1-1z"/><path fill="#636571" d="M735 158l-1 2 1.083-1 .334-.333L735 158z"/><path fill="#999ba2" d="M161 159l1 1-1-1z"/><path fill="#bfc0c4" d="M243 159l1 1-1-1z"/><path fill="#bdbec3" d="M308 159l1 1-1-1z"/><path fill="#cccdd0" d="M539 159l1 1-1-1z"/><path fill="#c3c4c8" d="M555 159l1 1-1-1z"/><path fill="#b0b1b6" d="M664 159l1 1-1-1z"/><path fill="#c9cace" d="M720 159l1 1-1-1z"/><path fill="#96989f" d="M735 159v76l.722-.778.028-.528.194-.805.028-.917L736 231v-68l-.028-.972-.028-.917-.194-.805-.028-.528L735 159z"/><path fill="#a9aab1" d="M120 160l1 1-1-1z"/><path fill="#7b7d86" d="M136 160l1 1-1-1z"/><path fill="#7c7e87" d="M146 160l1 1-1-1z"/><path fill="#6d6f79" d="M228 160l1 1-1-1z"/><path fill="#6a6c77" d="M243 160l1 1-1-1z"/><path fill="#abacb2" d="M292 160l1 1-1-1z"/><path fill="#7f818a" d="M514 160l1 1-1-1z"/><path fill="#a4a6ac" d="M530 160l1 1-1-1z"/><path fill="#6e707a" d="M555 160l1 1-1-1z"/><path fill="#96989f" d="M649 160l1 1-1-1z"/><path fill="#7d7f88" d="M720 160l1 1-1-1z"/><path fill="#c9cace" d="M734 160l1 1-1-1z"/><path fill="#cfcfd3" d="M136 161l1 1-1-1z"/><path fill="#cdced1" d="M146 161l1 1-1-1z"/><path fill="#babbc0" d="M162 161l1 1-1-1z"/><path fill="#c6c7cb" d="M228 161l1 1-1-1z"/><path fill="#a4a5ab" d="M307 161l1 1-1-1m233 0l1 1-1-1z"/><path fill="#c9cace" d="M649 161v73l.722-.778.028-.528.194-.805.028-.917L650 230v-62l.083-2 .195-1.972.055-.917-.222-.805-.055-.528L649 161z"/><path fill="#636571" d="M650 161l1 1-1-1z"/><path fill="#b0b1b6" d="M665 161l1 1-1-1z"/><path fill="#636571" d="M733 161l1 1-1-1z"/><path fill="#cacbce" d="M119 162l1 1-1-1z"/><path fill="#656772" d="M162 162l1 1-1-1z"/><path fill="#8c8d96" d="M244 162l1 1-1-1z"/><path fill="#cacbce" d="M291 162l1 1-1-1z"/><path fill="#a0a1a8" d="M513 162l1 1-1-1z"/><path fill="#7f818a" d="M529 162l1 1-1-1z"/><path fill="#8e9098" d="M556 162l1 1-1-1z"/><path fill="#7d7f88" d="M719 162l1 1-1-1z"/><path fill="#c9cace" d="M733 162l1 1-1-1z"/><path fill="#757781" d="M119 163l1 1-1-1z"/><path fill="#a9aab1" d="M135 163l1 1-1-1z"/><path fill="#a5a7ad" d="M147 163l1 1-1-1z"/><path fill="#acaeb3" d="M229 163l1 1-1-1z"/><path fill="#747680" d="M291 163l1 1-1-1z"/><path fill="#898b94" d="M306 163l1 1-1-1z"/><path fill="#7c7e87" d="M541 163l1 1-1-1z"/><path fill="#636571" d="M651 163l1 1-1-1z"/><path fill="#b0b1b6" d="M666 163l1 1-1-1z"/><path fill="#636571" d="M732 163l1 1-1-1z"/><path fill="#858790" d="M163 164l1 1-1-1z"/><path fill="#aeafb5" d="M245 164l1 1-1-1z"/><path fill="#c0c1c6" d="M512 164l1 1-1-1z"/><path fill="#cecfd2" d="M541 164l1 1-1-1z"/><path fill="#afb0b6" d="M557 164l1 1-1-1z"/><path fill="#c9cace" d="M651 164l1 1-1-1z"/><path fill="#7d7f88" d="M718 164l1 1-1-1z"/><path fill="#c9cace" d="M732 164l1 1-1-1z"/><path fill="#95979e" d="M118 165l1 1-1-1z"/><path fill="#85868f" d="M134 165l1 1-1-1z"/><path fill="#7d7f89" d="M148 165l1 1-1-1z"/><path fill="#93949c" d="M230 165l1 1-1-1m60 0l1 1-1-1z"/><path fill="#6f717c" d="M305 165l1 1-1-1z"/><path fill="#6b6d78" d="M512 165l1 1-1-1z"/><path fill="#aeafb5" d="M528 165l1 1-1-1z"/><path fill="#636571" d="M652 165l1 1-1-1z"/><path fill="#b0b1b6" d="M667 165l1 1-1-1z"/><path fill="#cfd0d3" d="M148 166l1 1-1-1z"/><path fill="#a6a7ae" d="M164 166l1 1-1-1z"/><path fill="#d0d1d4" d="M246 166l1 1-1-1z"/><path fill="#c8c9cd" d="M305 166l1 1-1-1z"/><path fill="#a6a7ae" d="M542 166l1 1-1-1z"/><path fill="#cfd0d3" d="M558 166l1 1-1-1z"/><path fill="#c9cace" d="M652 166l1 1-1-1z"/><path fill="#7d7f88" d="M717 166l1 1-1-1z"/><path fill="#b0b1b6" d="M731 166l1 1-1-1z"/><path fill="#b7b8bd" d="M117 167l1 1-1-1z"/><path fill="#5f626d" d="M133 167l1 1-1-1z"/><path fill="#797b85" d="M231 167l1 1-1-1z"/><path fill="#7c7e87" d="M246 167l1 1-1-1z"/><path fill="#b3b4b9" d="M289 167l1 1-1-1z"/><path fill="#8d8e96" d="M511 167l1 1-1-1z"/><path fill="#898a93" d="M527 167l1 1-1-1z"/><path fill="#7a7c86" d="M558 167l1 1-1-1z"/><path fill="#636571" d="M653 167l1 1-1-1z"/><path fill="#b0b1b6" d="M668 167l1 1-1-1z"/><path fill="#61636f" d="M117 168l1 1-1-1z"/><path fill="#b3b4b9" d="M133 168l1 1-1-1z"/><path fill="#a8a9af" d="M149 168l1 1-1-1z"/><path fill="#c7c8cc" d="M165 168l1 1-1-1z"/><path fill="#aeafb5" d="M304 168l1 1-1-1z"/><path fill="#7e8089" d="M543 168l1 1-1-1z"/><path fill="#c9cace" d="M653 168l1 1-1-1z"/><path fill="#898b94" d="M716 168l1 1-1-1z"/><path fill="#b0b1b6" d="M730 168l1 1-1-1z"/><path fill="#71747e" d="M165 169l1 1-1-1z"/><path fill="#5f626d" d="M232 169l1 1-1-1z"/><path fill="#9d9fa6" d="M247 169l1 1-1-1z"/><path fill="#adaeb4" d="M510 169l1 1-1-1z"/><path fill="#636571" d="M526 169l1 1-1-1z"/><path fill="#d0d1d4" d="M543 169l1 1-1-1z"/><path fill="#9b9ca3" d="M559 169l1 1-1-1z"/><path fill="#636571" d="M654 169l1 1-1-1z"/><path fill="#b0b1b6" d="M669 169l1 1-1-1z"/><path fill="#82848d" d="M116 170l1 1-1-1z"/><path fill="#8d8f97" d="M132 170l1 1-1-1z"/><path fill="#80828b" d="M150 170l1 1-1-1z"/><path fill="#b8b9be" d="M232 170l1 1-1-1z"/><path fill="#7c7e87" d="M288 170l1 1-1-1z"/><path fill="#94959d" d="M303 170l1 1-1-1z"/><path fill="#b7b8bd" d="M526 170l1 1-1-1z"/><path fill="#c9cace" d="M654 170l1 1-1-1z"/><path fill="#96989f" d="M715 170l1 1-1-1z"/><path fill="#b0b1b6" d="M729 170l1 1-1-1z"/><path fill="#92949c" d="M166 171l1 1-1-1z"/><path fill="#c0c0c5" d="M248 171l1 1-1-1z"/><path fill="#cecfd2" d="M509 171l1 1-1-1z"/><path fill="#a8aab0" d="M544 171l1 1-1-1z"/><path fill="#bcbcc1" d="M560 171l1 1-1-1z"/><path fill="#636571" d="M655 171l1 1-1-1z"/><path fill="#b0b1b6" d="M670 171l1 1-1-1z"/><path fill="#a3a4ab" d="M115 172l1 1-1-1z"/><path fill="#686a75" d="M131 172l1 1-1-1z"/><path fill="#9fa0a7" d="M233 172l1 1-1-1z"/><path fill="#6b6d78" d="M248 172l1 1-1-1z"/><path fill="#9b9ca3" d="M287 172l1 1-1-1z"/><path fill="#7a7c86" d="M302 172l1 1-1-1z"/><path fill="#797b84" d="M509 172l1 1-1-1z"/><path fill="#91939b" d="M525 172l1 1-1-1z"/><path fill="#666974" d="M560 172l1 1-1-1z"/><path fill="#c9cace" d="M655 172l1 1-1-1z"/><path fill="#96989f" d="M714 172l1 1-1-1z"/><path fill="#b0b1b6" d="M728 172l1 1-1-1z"/><path fill="#bcbcc1" d="M131 173l1 1-1-1z"/><path fill="#aaabb1" d="M151 173l1 1-1-1z"/><path fill="#b4b5ba" d="M167 173l1 1-1-1z"/><path fill="#81828c" d="M545 173l1 1-1-1z"/><path fill="#636571" d="M656 173l1 1-1-1z"/><path fill="#b0b1b6" d="M671 173l1 1-1-1z"/><path fill="#c3c4c8" d="M114 174l1 1-1-1z"/><path fill="#5e606c" d="M167 174l1 1-1-1z"/><path fill="#858790" d="M234 174l1 1-1-1z"/><path fill="#8d8f97" d="M249 174l1 1-1-1z"/><path fill="#bbbcc1" d="M286 174l1 1-1-1z"/><path fill="#60626e" d="M301 174l1 1-1-1z"/><path fill="#999ba2" d="M508 174l1 1-1-1z"/><path fill="#6d6f79" d="M524 174l1 1-1-1z"/><path fill="#878991" d="M561 174l1 1-1-1z"/><path fill="#c9cace" d="M656 174l1 1-1-1z"/><path fill="#96989f" d="M713 174l1 1-1-1z"/><path fill="#b0b1b6" d="M727 174l1 1-1-1z"/><path fill="#6e707b" d="M114 175l1 1-1-1z"/><path fill="#9798a0" d="M130 175l1 1-1-1z"/><path fill="#81838c" d="M152 175l1 1-1-1z"/><path fill="#646671" d="M286 175l1 1-1-1z"/><path fill="#b9babf" d="M301 175l1 1-1-1z"/><path fill="#c0c1c6" d="M524 175l1 1-1-1z"/><path fill="#636571" d="M657 175l1 1-1-1z"/><path fill="#b0b1b6" d="M672 175l1 1-1-1z"/><path fill="#7e8089" d="M168 176l1 1-1-1z"/><path fill="#6b6d78" d="M235 176l1 1-1-1z"/><path fill="#b0b1b6" d="M250 176l1 1-1-1z"/><path fill="#bbbcc1" d="M507 176l1 1-1-1z"/><path fill="#aaabb1" d="M546 176l1 1-1-1z"/><path fill="#a8a9af" d="M562 176l1 1-1-1z"/><path fill="#c9cace" d="M657 176l1 1-1-1z"/><path fill="#96989f" d="M712 176l1 1-1-1z"/><path fill="#b0b1b6" d="M726 176l1 1-1-1z"/><path fill="#909199" d="M113 177l1 1-1-1z"/><path fill="#71747e" d="M129 177l1 1-1-1z"/><path fill="#c4c5c9" d="M235 177l1 1-1-1z"/><path fill="#84868e" d="M285 177l1 1-1-1z"/><path fill="#9fa0a7" d="M300 177l1 1-1-1z"/><path fill="#666873" d="M507 177l1 1-1-1z"/><path fill="#9b9ca3" d="M523 177l1 1-1-1z"/><path fill="#636571" d="M658 177l1 1-1-1z"/><path fill="#b0b1b6" d="M673 177l1 1-1-1z"/><path fill="#c5c6ca" d="M129 178l1 1-1-1z"/><path fill="#acadb3" d="M153 178l1 1-1-1z"/><path fill="#a0a1a8" d="M169 178l1 1-1-1z"/><path fill="#82848d" d="M547 178l1 1-1-1z"/><path fill="#c9cace" d="M563 178l1 1-1-1m95 0l1 1-1-1z"/><path fill="#b0b1b6" d="M711 178l1 1-1-1m14 0l1 1-1-1z"/><path fill="#b0b1b7" d="M112 179l1 1-1-1z"/><path fill="#abacb2" d="M236 179l1 1-1-1z"/><path fill="#7d7f88" d="M251 179l1 1-1-1z"/><path fill="#a3a4ab" d="M284 179l1 1-1-1z"/><path fill="#85868f" d="M299 179l1 1-1-1z"/><path fill="#868891" d="M506 179l1 1-1-1z"/><path fill="#757781" d="M522 179l1 1-1-1z"/><path fill="#73757f" d="M563 179l1 1-1-1z"/><path fill="#636571" d="M659 179l1 1-1-1z"/><path fill="#b0b1b6" d="M674 179l1 1-1-1z"/><path fill="#a0a1a8" d="M128 180l1 1-1-1z"/><path fill="#84868e" d="M154 180l1 1-1-1z"/><path fill="#c0c1c6" d="M170 180l1 1-1-1z"/><path fill="#c9cace" d="M522 180l1 1-1-1m137 0l1 1-1-1z"/><path fill="#b0b1b6" d="M710 180l1 1-1-1z"/><path fill="#96989f" d="M724 180l1 1-1-1z"/><path fill="#6a6c77" d="M170 181l1 1-1-1z"/><path fill="#91939b" d="M237 181l1 1-1-1z"/><path fill="#9fa0a7" d="M252 181l1 1-1-1z"/><path fill="#c3c4c8" d="M283 181l1 1-1-1z"/><path fill="#6b6d78" d="M298 181l1 1-1-1z"/><path fill="#a7a8ae" d="M505 181l1 1-1-1z"/><path fill="#acaeb3" d="M548 181l1 1-1-1z"/><path fill="#94959d" d="M564 181l1 1-1-1z"/><path fill="#636571" d="M660 181l1 1-1-1z"/><path fill="#c9cace" d="M675 181l1 1-1-1z"/><path fill="#7c7e87" d="M111 182l1 1-1-1z"/><path fill="#7b7d86" d="M127 182l1 1-1-1z"/><path fill="#6c6e79" d="M283 182l1 1-1-1z"/><path fill="#c3c4c8" d="M298 182l1 1-1-1z"/><path fill="#a4a6ac" d="M521 182l1 1-1-1z"/><path fill="#c9cace" d="M660 182l1 1-1-1z"/><path fill="#646671" d="M675 182l1 1-1-1z"/><path fill="#b0b1b6" d="M709 182l1 1-1-1z"/><path fill="#96989f" d="M723 182l1 1-1-1z"/><path fill="#cecfd2" d="M127 183l1 1-1-1z"/><path fill="#aeafb5" d="M155 183l1 1-1-1z"/><path fill="#8c8d96" d="M171 183l1 1-1-1z"/><path fill="#787a84" d="M238 183l1 1-1-1z"/><path fill="#c1c2c6" d="M253 183l1 1-1-1z"/><path fill="#c8c9cd" d="M504 183l1 1-1-1z"/><path fill="#85868f" d="M549 183l1 1-1-1z"/><path fill="#b5b6bb" d="M565 183l1 1-1-1z"/><path fill="#636571" d="M661 183l1 1-1-1z"/><path fill="#c9cace" d="M676 183l1 1-1-1z"/><path fill="#9c9ea5" d="M110 184l1 1-1-1z"/><path fill="#6c6e79" d="M253 184l1 1-1-1z"/><path fill="#8c8d96" d="M282 184l1 1-1-1z"/><path fill="#a9aab1" d="M297 184l1 1-1-1z"/><path fill="#72747f" d="M504 184l1 1-1-1z"/><path fill="#7f818a" d="M520 184l1 1-1-1z"/><path fill="#5f626d" d="M565 184l1 1-1-1z"/><path fill="#c9cace" d="M661 184l1 1-1-1z"/><path fill="#646671" d="M676 184l1 1-1-1z"/><path fill="#b0b1b6" d="M708 184l1 1-1-1z"/><path fill="#96989f" d="M722 184l1 1-1-1z"/><path fill="#a9aab1" d="M126 185l1 1-1-1z"/><path fill="#868891" d="M156 185l1 1-1-1z"/><path fill="#acaeb3" d="M172 185l1 1-1-1z"/><path fill="#5e606c" d="M239 185l1 1-1-1z"/><path fill="#5d5f6b" d="M550 185l1 1-1-1z"/><path fill="#636571" d="M662 185l1 1-1-1z"/><path fill="#c9cace" d="M677 185l1 1-1-1z"/><path fill="#bebfc3" d="M109 186l1 1-1-1z"/><path fill="#b7b8bd" d="M239 186l1 1-1-1z"/><path fill="#8e9098" d="M254 186l1 1-1-1z"/><path fill="#abacb2" d="M281 186l1 1-1-1z"/><path fill="#909199" d="M296 186l1 1-1-1z"/><path fill="#94959d" d="M503 186l1 1-1-1z"/><path fill="#afb0b6" d="M550 186l1 1-1-1z"/><path fill="#80828b" d="M566 186l1 1-1-1z"/><path fill="#c9cace" d="M662 186l1 1-1-1z"/><path fill="#646671" d="M677 186l1 1-1-1z"/><path fill="#c9cace" d="M707 186l1 1-1-1z"/><path fill="#96989f" d="M721 186l1 1-1-1z"/><path fill="#696b76" d="M109 187l1 1-1-1z"/><path fill="#84868e" d="M125 187l1 1-1-1z"/><path fill="#5e606c" d="M157 187l1 1-1-1z"/><path fill="#cdced1" d="M173 187l1 1-1-1z"/><path fill="#adaeb4" d="M519 187l1 1-1-1z"/><path fill="#636571" d="M663 187l1 1-1-1z"/><path fill="#c9cace" d="M678 187l1 1-1-1z"/><path fill="#646671" d="M707 187l1 1-1-1z"/><path fill="#b0b1b6" d="M157 188l1 1-1-1z"/><path fill="#787a84" d="M173 188l1 1-1-1z"/><path fill="#9d9fa6" d="M240 188l1 1-1-1z"/><path fill="#b0b1b7" d="M255 188l1 1-1-1z"/><path fill="#cbcbcf" d="M280 188l1 1-1-1z"/><path fill="#757781" d="M295 188l1 1-1-1z"/><path fill="#b4b5bb" d="M502 188l1 1-1-1z"/><path fill="#868891" d="M551 188l1 1-1-1z"/><path fill="#a1a3a9" d="M567 188l1 1-1-1z"/><path fill="#c9cace" d="M663 188l1 1-1-1z"/><path fill="#646671" d="M678 188l1 1-1-1z"/><path fill="#c9cace" d="M706 188l1 1-1-1z"/><path fill="#96989f" d="M720 188l1 1-1-1z"/><path fill="#898b94" d="M108 189l1 1-1-1z"/><path fill="#5e616c" d="M124 189l1 1-1-1z"/><path fill="#747680" d="M280 189l1 1-1-1z"/><path fill="#cfcfd3" d="M295 189l1 1-1-1z"/><path fill="#5f626d" d="M502 189l1 1-1-1z"/><path fill="#888992" d="M518 189l1 1-1-1z"/><path fill="#636571" d="M664 189l1 1-1-1z"/><path fill="#c9cace" d="M679 189l1 1-1-1z"/><path fill="#646671" d="M706 189l1 1-1-1z"/><path fill="#b2b3b9" d="M124 190l1 1-1-1z"/><path fill="#888992" d="M158 190l1 1-1-1z"/><path fill="#989aa1" d="M174 190l1 1-1-1z"/><path fill="#84868e" d="M241 190l1 1-1-1z"/><path fill="#5e616c" d="M552 190l1 1-1-1z"/><path fill="#c2c3c7" d="M568 190l1 1-1-1z"/><path fill="#c9cace" d="M664 190l1 1-1-1z"/><path fill="#646671" d="M679 190l1 1-1-1z"/><path fill="#c9cace" d="M705 190l1 1-1-1z"/><path fill="#96989f" d="M719 190l1 1-1-1z"/><path fill="#aaabb1" d="M107 191l1 1-1-1z"/><path fill="#7e8089" d="M256 191l1 1-1-1z"/><path fill="#94959d" d="M279 191l1 1-1-1z"/><path fill="#b4b5bb" d="M294 191l1 1-1-1z"/><path fill="#80828b" d="M501 191l1 1-1-1z"/><path fill="#636571" d="M517 191l1 1-1-1z"/><path fill="#b0b1b7" d="M552 191l1 1-1-1z"/><path fill="#6c6e79" d="M568 191l1 1-1-1z"/><path fill="#636571" d="M665 191l1 1-1-1z"/><path fill="#c9cace" d="M680 191l1 1-1-1z"/><path fill="#646671" d="M705 191l1 1-1-1z"/><path fill="#8d8f97" d="M123 192l1 1-1-1z"/><path fill="#60626e" d="M159 192l1 1-1-1z"/><path fill="#b9babf" d="M175 192l1 1-1-1z"/><path fill="#6a6c77" d="M242 192l1 1-1-1z"/><path fill="#b7b8bd" d="M517 192l1 1-1-1z"/><path fill="#c9cace" d="M665 192l1 1-1-1z"/><path fill="#646671" d="M680 192l1 1-1-1z"/><path fill="#c9cace" d="M704 192l1 1-1-1z"/><path fill="#7d7f88" d="M718 192l1 1-1-1z"/><path fill="#cbccd0" d="M106 193l1 1-1-1z"/><path fill="#b2b3b9" d="M159 193l1 1-1-1z"/><path fill="#646671" d="M175 193l1 1-1-1z"/><path fill="#c3c4c8" d="M242 193l1 1-1-1z"/><path fill="#a0a2a9" d="M257 193l1 1-1-1z"/><path fill="#b3b4b9" d="M278 193l1 1-1-1z"/><path fill="#9a9ca3" d="M293 193l1 1-1-1z"/><path fill="#a1a3a9" d="M500 193l1 1-1-1z"/><path fill="#898a93" d="M553 193l1 1-1-1z"/><path fill="#8d8f97" d="M569 193l1 1-1-1z"/><path fill="#636571" d="M666 193l1 1-1-1z"/><path fill="#c9cace" d="M681 193l1 1-1-1z"/><path fill="#646671" d="M704 193l1 1-1-1z"/><path fill="#757781" d="M106 194l1 1-1-1z"/><path fill="#686a75" d="M122 194l1 1-1-1z"/><path fill="#5d5f6b" d="M278 194l1 1-1-1z"/><path fill="#91939b" d="M516 194l1 1-1-1z"/><path fill="#c9cace" d="M666 194l1 1-1-1z"/><path fill="#646671" d="M681 194l1 1-1-1z"/><path fill="#7d7f88" d="M717 194l1 1-1-1z"/><path fill="#bcbcc1" d="M122 195l1 1-1-1z"/><path fill="#8a8c94" d="M160 195l1 1-1-1z"/><path fill="#85868f" d="M176 195l1 1-1-1z"/><path fill="#a9aab1" d="M243 195l1 1-1-1z"/><path fill="#c3c4c8" d="M258 195l1 1-1-1z"/><path fill="#81828c" d="M292 195l1 1-1-1z"/><path fill="#c2c3c7" d="M499 195l1 1-1-1z"/><path fill="#61636f" d="M554 195l1 1-1-1z"/><path fill="#aeafb5" d="M570 195l1 1-1-1z"/><path fill="#636571" d="M667 195l1 1-1-1z"/><path fill="#c9cace" d="M682 195l1 1-1-1z"/><path fill="#7d7f88" d="M703 195l1 1-1-1z"/><path fill="#9798a0" d="M105 196l1 1-1-1z"/><path fill="#6e707a" d="M258 196l1 1-1-1z"/><path fill="#7c7e87" d="M277 196l1 1-1-1z"/><path fill="#6d6f79" d="M499 196l1 1-1-1z"/><path fill="#6c6e79" d="M515 196l1 1-1-1z"/><path fill="#b3b4b9" d="M554 196l1 1-1-1z"/><path fill="#c9cace" d="M667 196l1 1-1-1z"/><path fill="#646671" d="M682 196l1 1-1-1z"/><path fill="#7d7f88" d="M716 196l1 1-1-1z"/><path fill="#96989f" d="M121 197l1 1-1-1z"/><path fill="#626570" d="M161 197l1 1-1-1z"/><path fill="#a5a7ad" d="M177 197l1 1-1-1z"/><path fill="#909199" d="M244 197l1 1-1-1z"/><path fill="#666974" d="M291 197l1 1-1-1z"/><path fill="#c0c0c5" d="M515 197l1 1-1-1z"/><path fill="#cfcfd3" d="M571 197l1 1-1-1z"/><path fill="#636571" d="M668 197l1 1-1-1z"/><path fill="#c9cace" d="M683 197l1 1-1-1z"/><path fill="#7d7f88" d="M702 197l1 1-1-1z"/><path fill="#b8b9be" d="M104 198l1 1-1-1z"/><path fill="#b4b5bb" d="M161 198l1 1-1-1z"/><path fill="#909199" d="M259 198l1 1-1-1z"/><path fill="#9c9da4" d="M276 198l1 1-1-1z"/><path fill="#bfc0c4" d="M291 198l1 1-1-1z"/><path fill="#8d8f97" d="M498 198l1 1-1-1z"/><path fill="#8b8d95" d="M555 198l1 1-1-1z"/><path fill="#797b85" d="M571 198l1 1-1-1z"/><path fill="#c9cace" d="M668 198l1 1-1-1z"/><path fill="#646671" d="M683 198l1 1-1-1z"/><path fill="#7d7f88" d="M715 198l1 1-1-1z"/><path fill="#626570" d="M104 199l1 1-1-1z"/><path fill="#71747e" d="M120 199l1 1-1-1z"/><path fill="#c6c7cb" d="M178 199l1 1-1-1z"/><path fill="#767882" d="M245 199l1 1-1-1z"/><path fill="#9b9ca3" d="M514 199l1 1-1-1z"/><path fill="#636571" d="M669 199l1 1-1-1z"/><path fill="#c9cace" d="M684 199l1 1-1-1z"/><path fill="#7d7f88" d="M701 199l1 1-1-1z"/><path fill="#c4c5c9" d="M120 200l1 1-1-1z"/><path fill="#8c8d96" d="M162 200l1 1-1-1z"/><path fill="#71737d" d="M178 200l1 1-1-1z"/><path fill="#cfd0d3" d="M245 200l1 1-1-1z"/><path fill="#b2b3b9" d="M260 200l1 1-1-1z"/><path fill="#bbbcc1" d="M275 200l1 1-1-1z"/><path fill="#a5a7ad" d="M290 200l1 1-1-1z"/><path fill="#afb0b6" d="M497 200l1 1-1-1z"/><path fill="#626570" d="M556 200l1 1-1-1z"/><path fill="#9a9ca3" d="M572 200l1 1-1-1z"/><path fill="#c9cace" d="M669 200l1 1-1-1z"/><path fill="#646671" d="M684 200l1 1-1-1z"/><path fill="#7d7f88" d="M714 200l1 1-1-1z"/><path fill="#83858e" d="M103 201l1 1-1-1z"/><path fill="#5d5f6b" d="M260 201l1 1-1-1z"/><path fill="#656772" d="M275 201l1 1-1-1z"/><path fill="#757781" d="M513 201l1 1-1-1z"/><path fill="#b4b5bb" d="M556 201l1 1-1-1z"/><path fill="#636571" d="M670 201l1 1-1-1z"/><path fill="#c9cace" d="M685 201l1 1-1-1z"/><path fill="#7d7f88" d="M700 201l1 1-1-1z"/><path fill="#a0a1a8" d="M119 202l1 1-1-1z"/><path fill="#646671" d="M163 202l1 1-1-1z"/><path fill="#91939b" d="M179 202l1 1-1-1z"/><path fill="#b5b6bb" d="M246 202l1 1-1-1z"/><path fill="#8b8d95" d="M289 202l1 1-1-1z"/><path fill="#cfd0d3" d="M496 202l1 1-1-1z"/><path fill="#c9cace" d="M513 202l1 1-1-1z"/><path fill="#bbbcc1" d="M573 202l1 1-1-1z"/><path fill="#c9cace" d="M670 202l1 1-1-1z"/><path fill="#646671" d="M685 202l1 1-1-1z"/><path fill="#7d7f88" d="M713 202l1 1-1-1z"/><path fill="#a4a6ac" d="M102 203l1 1-1-1z"/><path fill="#b6b7bc" d="M163 203l1 1-1-1z"/><path fill="#7f818a" d="M261 203l1 1-1-1z"/><path fill="#84868e" d="M274 203l1 1-1-1z"/><path fill="#7a7c86" d="M496 203l1 1-1-1z"/><path fill="#8d8e96" d="M557 203l1 1-1-1z"/><path fill="#666873" d="M573 203l1 1-1-1z"/><path fill="#636571" d="M671 203l1 1-1-1z"/><path fill="#c9cace" d="M686 203l1 1-1-1z"/><path fill="#96989f" d="M699 203l1 1-1-1z"/><path fill="#7a7c86" d="M118 204l1 1-1-1z"/><path fill="#b2b3b9" d="M180 204l1 1-1-1z"/><path fill="#9c9da4" d="M247 204l1 1-1-1z"/><path fill="#71737d" d="M288 204l1 1-1-1z"/><path fill="#a4a5ab" d="M512 204l1 1-1-1z"/><path fill="#c9cace" d="M671 204l1 1-1-1z"/><path fill="#646671" d="M686 204l1 1-1-1z"/><path fill="#7d7f88" d="M712 204l1 1-1-1z"/><path fill="#c5c6ca" d="M101 205l1 1-1-1z"/><path fill="#cecfd2" d="M118 205l1 1-1-1z"/><path fill="#8e9098" d="M164 205l1 1-1-1z"/><path fill="#5d5f6b" d="M180 205l1 1-1-1z"/><path fill="#a1a3a9" d="M262 205l1 1-1-1z"/><path fill="#a3a4ab" d="M273 205l1 1-1-1z"/><path fill="#cacbce" d="M288 205l1 1-1-1z"/><path fill="#9b9ca3" d="M495 205l1 1-1-1z"/><path fill="#656772" d="M558 205l1 1-1-1z"/><path fill="#868891" d="M574 205l1 1-1-1z"/><path fill="#636571" d="M672 205l1 1-1-1z"/><path fill="#c9cace" d="M687 205l1 1-1-1z"/><path fill="#96989f" d="M698 205l1 1-1-1z"/><path fill="#70727c" d="M101 206l1 1-1-1z"/><path fill="#82848d" d="M248 206l1 1-1-1z"/><path fill="#7f818a" d="M511 206l1 1-1-1z"/><path fill="#b7b8bd" d="M558 206l1 1-1-1z"/><path fill="#c9cace" d="M672 206l1 1-1-1z"/><path fill="#646671" d="M687 206l1 1-1-1z"/><path fill="#636571" d="M711 206l1 1-1-1z"/><path fill="#a8aab0" d="M117 207l1 1-1-1z"/><path fill="#666974" d="M165 207l1 1-1-1z"/><path fill="#7d7f89" d="M181 207l1 1-1-1z"/><path fill="#c3c4c8" d="M263 207l1 1-1-1m9 0l1 1-1-1z"/><path fill="#b0b1b6" d="M287 207l1 1-1-1z"/><path fill="#bcbdc2" d="M494 207l1 1-1-1z"/><path fill="#a7a8ae" d="M575 207l1 1-1-1z"/><path fill="#636571" d="M673 207l1 1-1-1z"/><path fill="#c9cace" d="M688 207l1 1-1-1z"/><path fill="#96989f" d="M697 207l1 1-1-1z"/><path fill="#c9cace" d="M711 207l1 1-1-1z"/><path fill="#91929a" d="M100 208l1 1-1-1z"/><path fill="#b8b9be" d="M165 208l1 1-1-1z"/><path fill="#696b76" d="M249 208l1 1-1-1z"/><path fill="#6f717c" d="M263 208l1 1-1-1z"/><path fill="#6d6f79" d="M272 208l1 1-1-1z"/><path fill="#666974" d="M494 208l1 1-1-1z"/><path fill="#8f9199" d="M559 208l1 1-1-1z"/><path fill="#c9cace" d="M673 208l1 1-1-1z"/><path fill="#646671" d="M688 208l1 1-1-1z"/><path fill="#636571" d="M710 208l1 1-1-1z"/><path fill="#84868e" d="M116 209l1 1-1-1z"/><path fill="#9e9fa6" d="M182 209l1 1-1-1z"/><path fill="#c1c2c6" d="M249 209l1 1-1-1z"/><path fill="#96989f" d="M286 209l1 1-1-1z"/><path fill="#adaeb4" d="M510 209l1 1-1-1z"/><path fill="#c7c8cc" d="M576 209l1 1-1-1z"/><path fill="#636571" d="M674 209l1 1-1-1z"/><path fill="#c9cace" d="M689 209l1 1-1-1z"/><path fill="#96989f" d="M696 209l1 1-1-1z"/><path fill="#c9cace" d="M710 209l1 1-1-1z"/><path fill="#b2b3b9" d="M99 210l1 1-1-1z"/><path fill="#91929a" d="M166 210l1 1-1-1z"/><path fill="#91939b" d="M264 210l1 1-1-1z"/><path fill="#8c8d96" d="M271 210l1 1-1-1z"/><path fill="#888992" d="M493 210l1 1-1-1z"/><path fill="#676974" d="M560 210l1 1-1-1z"/><path fill="#72747f" d="M576 210l1 1-1-1z"/><path fill="#c9cace" d="M674 210l1 1-1-1z"/><path fill="#646671" d="M689 210l1 1-1-1z"/><path fill="#636571" d="M709 210l1 1-1-1z"/><path fill="#5e616c" d="M115 211l1 1-1-1z"/><path fill="#c0c0c5" d="M183 211l1 1-1-1z"/><path fill="#a8a9af" d="M250 211l1 1-1-1z"/><path fill="#7c7e87" d="M285 211l1 1-1-1z"/><path fill="#888992" d="M509 211l1 1-1-1z"/><path fill="#b9babf" d="M560 211l1 1-1-1z"/><path fill="#636571" d="M675 211l1 1-1-1z"/><path fill="#c9cace" d="M690 211l1 1-1-1z"/><path fill="#a3a4ab" d="M695 211l1 1-1-1z"/><path fill="#c9cace" d="M709 211l1 1-1-1z"/><path fill="#b2b3b9" d="M115 212l1 1-1-1z"/><path fill="#686a75" d="M167 212l1 1-1-1z"/><path fill="#6a6c77" d="M183 212l1 1-1-1z"/><path fill="#b4b5ba" d="M265 212l1 1-1-1z"/><path fill="#abacb2" d="M270 212l1 1-1-1z"/><path fill="#a8aab0" d="M492 212l1 1-1-1z"/><path fill="#93949c" d="M577 212l1 1-1-1z"/><path fill="#c9cace" d="M675 212l1 1-1-1z"/><path fill="#646671" d="M690 212l1 1-1-1z"/><path fill="#636571" d="M708 212l1 1-1-1z"/><path fill="#7d7f89" d="M98 213l1 1-1-1z"/><path fill="#babbc0" d="M167 213l1 1-1-1z"/><path fill="#8e9098" d="M251 213l1 1-1-1z"/><path fill="#5e616c" d="M265 213l1 1-1-1z"/><path fill="#62646f" d="M284 213l1 1-1-1z"/><path fill="#626570" d="M508 213l1 1-1-1z"/><path fill="#91929a" d="M561 213l1 1-1-1z"/><path fill="#636571" d="M676 213l1 1-1-1z"/><path fill="#c9cace" d="M691 213l1 1-1-1z"/><path fill="#b0b1b6" d="M694 213l1 1-1-1z"/><path fill="#c9cace" d="M708 213l1 1-1-1z"/><path fill="#8d8e96" d="M114 214l1 1-1-1z"/><path fill="#8a8c94" d="M184 214l1 1-1-1z"/><path fill="#cbcbcf" d="M269 214l1 1-1-1z"/><path fill="#bbbcc1" d="M284 214l1 1-1-1z"/><path fill="#c9cace" d="M491 214l1 1-1-1z"/><path fill="#b6b7bc" d="M508 214l1 1-1-1z"/><path fill="#b4b5ba" d="M578 214l1 1-1-1z"/><path fill="#c9cace" d="M676 214l1 1-1-1z"/><path fill="#646671" d="M691 214l1 1-1-1z"/><path fill="#636571" d="M707 214l1 1-1-1z"/><path fill="#9e9fa6" d="M97 215l1 1-1-1z"/><path fill="#92949c" d="M168 215l1 1-1-1z"/><path fill="#757781" d="M252 215l1 1-1-1z"/><path fill="#81828c" d="M266 215l1 1-1-1z"/><path fill="#757781" d="M269 215l1 1-1-1z"/><path fill="#747680" d="M491 215l1 1-1-1z"/><path fill="#696b76" d="M562 215l1 1-1-1z"/><path fill="#5e616c" d="M578 215l1 1-1-1z"/><path fill="#636571" d="M677 215l1 1-1-1z"/><path fill="#b0b1b6" d="M692.667 215.333l.333.334h.333l-.333-.334h-.333z"/><path fill="#c9cace" d="M707 215l1 1-1-1z"/><path fill="#686a75" d="M113 216l1 1-1-1z"/><path fill="#acadb3" d="M185 216l1 1-1-1z"/><path fill="#cecfd2" d="M252 216l1 1-1-1z"/><path fill="#a0a2a9" d="M283 216l1 1-1-1z"/><path fill="#91939b" d="M507 216l1 1-1-1z"/><path fill="#bbbcc1" d="M562 216l1 1-1-1z"/><path fill="#c9cace" d="M677 216l1 1-1-1z"/><path fill="#4a4d5a" d="M692.667 216.333l.333.334h.333l-.333-.334h-.333z"/><path fill="#636571" d="M706 216l1 1-1-1z"/><path fill="#c0c0c5" d="M96 217l1 1-1-1z"/><path fill="#bbbcc1" d="M113 217l1 1-1-1z"/><path fill="#6a6c77" d="M169 217l1 1-1-1z"/><path fill="#94959d" d="M267.667 217.333l.333.334h.333l-.333-.334h-.333z"/><path fill="#95979e" d="M490 217l1 1-1-1z"/><path fill="#7f818a" d="M579 217l1 1-1-1z"/><path fill="#636571" d="M678 217l1 1-1-1z"/><path fill="#c9cace" d="M706 217l1 1-1-1z"/><path fill="#6a6c77" d="M96 218l1 1-1-1z"/><path fill="#bcbdc2" d="M169 218l1 1-1-1z"/><path fill="#cccdd0" d="M186 218l1 1-1-1z"/><path fill="#b4b5bb" d="M253 218l1 1-1-1z"/><path fill="#888992" d="M282 218l1 1-1-1z"/><path fill="#6c6e79" d="M506 218l1 1-1-1z"/><path fill="#93949c" d="M563 218l1 1-1-1z"/><path fill="#c9cace" d="M678 218l1 1-1-1z"/><path fill="#96989f" d="M112 219l1 1-1-1z"/><path fill="#767882" d="M186 219l1 1-1-1z"/><path fill="#b6b7bc" d="M489 219l1 1-1-1z"/><path fill="#c0c0c5" d="M506 219l1 1-1-1z"/><path fill="#a0a1a8" d="M580 219l1 1-1-1z"/><path fill="#636571" d="M679 219l1 1-1-1z"/><path fill="#b0b1b6" d="M705 219l1 1-1-1z"/><path fill="#8b8d95" d="M95 220l1 1-1-1z"/><path fill="#95969e" d="M170 220l1 1-1-1z"/><path fill="#9a9ca3" d="M254 220l1 1-1-1z"/><path fill="#6d6f79" d="M281 220l1 1-1-1z"/><path fill="#61636f" d="M489 220l1 1-1-1z"/><path fill="#6b6d78" d="M564 220l1 1-1-1z"/><path fill="#c9cace" d="M679 220l1 1-1-1z"/><path fill="#71737d" d="M111 221l1 1-1-1z"/><path fill="#9899a1" d="M187 221l1 1-1-1z"/><path fill="#c5c6ca" d="M281 221l1 1-1-1z"/><path fill="#9a9ca3" d="M505 221l1 1-1-1z"/><path fill="#bdbec3" d="M564 221l1 1-1-1z"/><path fill="#c1c2c6" d="M581 221l1 1-1-1z"/><path fill="#636571" d="M680 221l1 1-1-1z"/><path fill="#b0b1b6" d="M704 221l1 1-1-1z"/><path fill="#acadb3" d="M94 222l1 1-1-1z"/><path fill="#c4c5c9" d="M111 222l1 1-1-1z"/><path fill="#6d6f79" d="M171 222l1 1-1-1z"/><path fill="#81828c" d="M255 222l1 1-1-1z"/><path fill="#81838c" d="M488 222l1 1-1-1z"/><path fill="#6b6d78" d="M581 222l1 1-1-1z"/><path fill="#c9cace" d="M680 222l1 1-1-1z"/><path fill="#bfc0c4" d="M171 223l1 1-1-1z"/><path fill="#b8b9be" d="M188 223l1 1-1-1z"/><path fill="#acadb3" d="M280 223l1 1-1-1z"/><path fill="#757781" d="M504 223l1 1-1-1z"/><path fill="#95979e" d="M565 223l1 1-1-1z"/><path fill="#636571" d="M681 223l1 1-1-1z"/><path fill="#b0b1b6" d="M703 223l1 1-1-1z"/><path fill="#cccdd0" d="M93 224l1 1-1-1z"/><path fill="#9fa0a7" d="M110 224l1 1-1-1z"/><path fill="#626570" d="M188 224l1 1-1-1z"/><path fill="#676974" d="M256 224l1 1-1-1z"/><path fill="#a2a3aa" d="M487 224l1 1-1-1z"/><path fill="#c8c9cd" d="M504 224l1 1-1-1z"/><path fill="#8c8d96" d="M582 224l1 1-1-1z"/><path fill="#c9cace" d="M681 224l1 1-1-1z"/><path fill="#777983" d="M93 225l1 1-1-1z"/><path fill="#96989f" d="M172 225l1 1-1-1z"/><path fill="#c0c1c6" d="M256 225l1 1-1-1z"/><path fill="#91939b" d="M279 225l1 1-1-1z"/><path fill="#7c7e87" d="M440.667 225.333v.334h.666l-.333-.334h-.333z"/><path fill="#b4b5bb" d="M442 225l1 1-1-1z"/><path fill="#6d6f79" d="M566 225l1 1-1-1z"/><path fill="#636571" d="M682 225l1 1-1-1z"/><path fill="#b0b1b6" d="M702 225l1 1-1-1z"/><path fill="#7a7c86" d="M109 226l1 1-1-1z"/><path fill="#84868e" d="M189 226l1 1-1-1z"/><path fill="#5e616c" d="M443 226l1 1-1-1z"/><path fill="#c3c4c8" d="M486 226l1 1-1-1z"/><path fill="#a4a5ab" d="M503 226l1 1-1-1z"/><path fill="#bfc0c4" d="M566 226l1 1-1-1z"/><path fill="#adaeb4" d="M583 226l1 1-1-1z"/><path fill="#c9cace" d="M682 226l1 1-1-1z"/><path fill="#989aa1" d="M92 227l1 1-1-1z"/><path fill="#cdced1" d="M109 227l1 1-1-1z"/><path fill="#6e707b" d="M173 227l1 1-1-1z"/><path fill="#a6a7ae" d="M257 227l1 1-1-1z"/><path fill="#777983" d="M278 227l1 1-1-1z"/><path fill="#6e707b" d="M486 227l1 1-1-1z"/><path fill="#636571" d="M683 227l1 1-1-1z"/><path fill="#b0b1b6" d="M701 227l1 1-1-1z"/><path fill="#c0c1c6" d="M173 228l1 1-1-1z"/><path fill="#a4a6ac" d="M190 228l1 1-1-1z"/><path fill="#5f626d" d="M445 228l1 1-1-1z"/><path fill="#7e8089" d="M502 228l1 1-1-1z"/><path fill="#9798a0" d="M567 228l1 1-1-1z"/><path fill="#cecfd2" d="M584 228l1 1-1-1z"/><path fill="#c9cace" d="M683 228l1 1-1-1z"/><path fill="#c0c1c6" d="M91 229l1 1-1-1z"/><path fill="#a9aab1" d="M108 229l1 1-1-1z"/><path fill="#8d8e96" d="M258 229l1 1-1-1z"/><path fill="#5d5f6b" d="M277 229l1 1-1-1z"/><path fill="#b7b8bd" d="M446 229l1 1-1-1z"/><path fill="#9798a0" d="M485 229l1 1-1-1z"/><path fill="#7b7d86" d="M584 229l1 1-1-1z"/><path fill="#636571" d="M684 229l1 1-1-1z"/><path fill="#b0b1b6" d="M700 229l1 1-1-1z"/><path fill="#81828c" d="M91 230l1 1-1-1z"/><path fill="#989aa1" d="M174 230l1 1-1-1z"/><path fill="#b6b7bc" d="M277 230l1 1-1-1z"/><path fill="#6d6f79" d="M446 230l1 1-1-1z"/><path fill="#6f717c" d="M568 230l1 1-1-1z"/><path fill="#c9cace" d="M684 230l1 1-1-1z"/><path fill="#84868e" d="M107 231l1 1-1-1z"/><path fill="#8f9199" d="M191 231v4l.722-.778v-.5l.167-.722-.167-1.222L191 231z"/><path fill="#73757f" d="M259 231l1 1-1-1z"/><path fill="#adaeb4" d="M501 231l1 1-1-1z"/><path fill="#c2c3c7" d="M568 231l1 1-1-1z"/><path fill="#b8b9be" d="M585 231v4l.722-.778.167-1.222-.167-.722v-.5L585 231z"/><path fill="#636571" d="M685 231l1 1-1-1z"/><path fill="#b0b1b6" d="M699 231l1 1-1-1z"/><path fill="#71747e" d="M175 232l1 1-1-1z"/><path fill="#cccdd0" d="M259 232l1 1-1-1z"/><path fill="#9c9da4" d="M276 232l1 1-1-1z"/><path fill="#e3e3e5" d="M484.333 232.667v.666h.334v-.666h-.334z"/><path fill="#5e616c" d="M106 233l1 1-1-1z"/><path fill="#c3c4c8" d="M175 233l1 1-1-1z"/><path fill="#888992" d="M500 233l1 1-1-1z"/><path fill="#999ba2" d="M569 233l1 1-1-1z"/><path fill="#a3a4ab" d="M686 233l1 1-1-1z"/><path fill="#b3b4b9" d="M106 234l1 1-1-1z"/><path fill="#b2b3b9" d="M260 234l1 1-1-1z"/><path fill="#82848d" d="M275 234l1 1-1-1z"/><path fill="#b0b1b6" d="M687 234l1 1-1-1z"/><path fill="#636571" d="M750 234l1 1-1-1z"/><path fill="#8b8d95" d="M91 235l1 1-1-1z"/><path fill="#9c9da4" d="M176 235l1 1-1-1z"/><path fill="#8b8d95" d="M446 235l1 1-1-1z"/><path fill="#62646f" d="M485 235l1 1-1-1z"/><path fill="#636571" d="M499 235l1 1-1-1z"/><path fill="#72747f" d="M570 235l1 1-1-1z"/><path fill="#898b94" d="M689 235l1 1-1-1z"/><path fill="#70727c" d="M694 235l1 1-1-1z"/><path fill="#b0b1b6" d="M695 235l1 1-1-1z"/><path fill="#a3a4ab" d="M750 235l1 1-1-1z"/><path fill="#999ba2" d="M105 236l1 1-1-1z"/><path fill="#60626e" d="M190 236l1 1-1-1z"/><path fill="#b2b3b9" d="M261 236l1 1-1-1z"/><path fill="#7d7f89" d="M274 236l1 1-1-1z"/><path fill="#84868e" d="M370 236l1 1-1-1z"/><path fill="#bbbcc1" d="M485 236l1 1-1-1z"/><path fill="#c3c4c8" d="M499 236l1 1-1-1z"/><path fill="#cbccd0" d="M570 236l1 1-1-1z"/><path fill="#8a8c94" d="M584 236l1 1-1-1z"/><path fill="#b0b1b6" d="M634 236l1 1-1-1m14 0l1 1-1-1z"/><path fill="#636571" d="M736 236l1 1-1-1z"/><path fill="#9c9ea5" d="M92 237l1 1-1-1z"/><path fill="#676974" d="M104 237l1 1-1-1z"/><path fill="#a2a3aa" d="M177 237l1 1-1-1z"/><path fill="#5e606c" d="M262 237l1 1-1-1z"/><path fill="#abacb2" d="M445 237l1 1-1-1z"/><path fill="#73757f" d="M486 237l1 1-1-1z"/><path fill="#898b94" d="M498 237l1 1-1-1z"/><path fill="#797b84" d="M571 237l1 1-1-1z"/><path fill="#70727c" d="M635 237l1 1-1-1z"/><path fill="#636571" d="M647 237l1 1-1-1z"/><path fill="#bcbdc2" d="M749 237l1 1-1-1z"/><path fill="#888992" d="M93 238l1 1-1-1z"/><path fill="#9b9ca3" d="M178 238l1 1-1-1z"/><path fill="#9798a0" d="M444 238l1 1-1-1z"/><path fill="#666974" d="M487 238l1 1-1-1z"/><path fill="#747680" d="M497 238l1 1-1-1z"/><path fill="#797b84" d="M572 238l1 1-1-1z"/><path fill="#5f626d" d="M582 238l1 1-1-1z"/><path fill="#636571" d="M636 238l1 1-1-1z"/><path fill="#b0b1b6" d="M748 238l1 1-1-1z"/><path fill="#b6b7bc" d="M94 239l1 1-1-1z"/><path fill="#a8aab0" d="M102 239l1 1-1-1z"/><path fill="#cccdd0" d="M179 239l1 1-1-1z"/><path fill="#61636f" d="M180 239l1 1-1-1z"/><path fill="#7f818a" d="M187 239l1 1-1-1z"/><path fill="#8c8d96" d="M264 239l1 1-1-1z"/><path fill="#73757f" d="M271 239l1 1-1-1z"/><path fill="#7c7e87" d="M373 239l1 1-1-1z"/><path fill="#c3c4c8" d="M443 239l1 1-1-1z"/><path fill="#989aa1" d="M488 239l1 1-1-1z"/><path fill="#bbbcc1" d="M496 239l1 1-1-1z"/><path fill="#b6b7bc" d="M573 239l1 1-1-1z"/><path fill="#9899a1" d="M581 239l1 1-1-1z"/><path fill="#96989f" d="M637 239l1 1-1-1m8 0l1 1-1-1z"/><path fill="#70727c" d="M739 239l1 1-1-1z"/><path fill="#636571" d="M746 239l1 1-1-1z"/><path fill="#bdbec3" d="M96.6667 240.333l.3333.334h.3333L97 240.333h-.3333z"/><path fill="#9798a0" d="M98 240l.7222.722.5278.028 1.75.25-.722-.722-.528-.028L98 240z"/><path fill="#96989f" d="M182 240l.722.722.528.028 1.75.25-.722-.722-.528-.028L182 240z"/><path fill="#a4a5ab" d="M266 240l.778.722.472.028.806.194L270 241l-.778-.722-.472-.028-.806-.194L266 240z"/><path fill="#96989f" d="M375 240l.778.722.528.028.805.194.917.028.972.028h61l-.778-.722-.528-.028-.805-.194-.917-.028L436 240h-61z"/><path fill="#e3e3e5" d="M440.667 240.333v.334h.666l-.333-.334h-.333z"/><path fill="#b4b5ba" d="M490.667 240.333l.333.334h.333l-.333-.334h-.333z"/><path fill="#9a9ca3" d="M492.667 240.333v.334h.666l-.333-.334h-.333z"/><path fill="#c8c9cd" d="M494 240l1 1-1-1z"/><path fill="#999ba2" d="M575 240l.778.722.472.028.806.194L579 241l-.778-.722-.472-.028-.806-.194L575 240z"/><path fill="#96989f" d="M639 240l.778.722.528.028.75.194.916.028L644 241l-.778-.722-.528-.028-.75-.194-.916-.028L639 240m102 0l.778.722.472.028.806.194L745 241l-.778-.722-.472-.028-.806-.194L741 240z"/></svg>
