<svg xmlns="http://www.w3.org/2000/svg" viewBox="77.81 109.81 685.88 143.88">
    <path fill="#a5a7ad" d="m139 123 .778.722.528.028.75.194.916.028L144 124l-.778-.722-.528-.028-.75-.194-.916-.028L139 123z"/>
    <path fill="#96989f" d="m221 123 .778.722.472.028.806.194L225 124l-.778-.722-.472-.028-.806-.194L221 123m90 0 .778.722.472.028.806.194L315 124l-.778-.722-.472-.028-.806-.194L311 123z"/>
    <path fill="#c4c5c9" d="m315 123 1 1-1-1z"/>
    <path fill="#adaeb4" d="m375 123 .778.722.472.028.806.194L379 124l-.778-.722-.472-.028-.806-.194L375 123z"/>
    <path fill="#a1a3a9" d="m533 123 .778.722.472.028.806.194L537 124l-.778-.722-.472-.028-.806-.194L533 123z"/>
    <path fill="#9798a0" d="m639 123 .778.722.472.028.806.194L643 124l-.778-.722-.472-.028-.806-.194L639 123z"/>
    <path fill="#cacbce" d="m643 123 1 1-1-1z"/>
    <path fill="#9798a0" d="m741 123 .778.722.472.028.806.194L745 124l-.778-.722-.472-.028-.806-.194L741 123z"/>
    <path fill="#81838c" d="m137 124 1 1-1-1z"/>
    <path fill="#313443" d="m141 149 1.167 1.5.25.556.555 1 .389.944.445 1 .388 1 .806 2 .806 2 .388 1 .417 1 .778 2 .805 2 .417 1 .778 2 .417 1 .805 2 .778 2 .417 1 .805 2 .778 2 .417 1 .805 2 .778 2 .861 2 .5 1 .417 1 .833 2 .389 1 .805 2 .417 1 .778 2 .417 1 .805 2 .778 2 .805 2 .417 1 .778 2 .417 1 .805 2 .778 2 .417 1 .805 2 .778 2 .805 2 .417 1 .778 2 .417 1 .805 2 .778 2 .417 1 .388 1 .806 2 .389 1 .417 1 .805 2 .806 2 1.083 1.917.75.833.833.75 1.917 1 2 .417h2l1-.167 1.917-.694 1.583-1.306 1-1.778.417-1.972.055-1-.055-2-.389-2-.778-2-.5-1-.861-2-.389-1-.389-1-.417-1-.805-2-.778-2-.861-2-.5-1-.861-2-.778-2-.861-2-.5-1-.861-2-.778-2-.417-1-.805-2-.778-2-.861-2-.5-1-.861-2-.778-2-.805-2-.417-1-.778-2-.861-2-.5-1-.861-2-.778-2-.861-2-.5-1-.861-2-.778-2-.805-2-.417-1-.778-2-.861-2-.5-1-.861-2-.778-2-.417-1-.805-2-.778-2-.861-2-.5-1-.861-2-.778-2-.861-2-.5-1-.861-2-.778-2-.805-2-.417-1-.778-2-.861-2-.5-1-.417-1-.444-1-.806-2-.5-1-1.333-1.889-1.778-1.389-1.972-.611-1-.083-2 .055-1.917.417-1.666 1-1.389 1.583-1.139 1.917-.472 1-.806 2-.805 2-.417 1-.778 2-.861 2-.5 1-.861 2-.778 2-.861 2-.5 1-.861 2-.778 2-.417 1-.805 2-.778 2-.861 2-.5 1-.861 2-.778 2-.417 1-.805 2-.778 2-.861 2-.5 1-.861 2-.778 2-.861 2-.5 1-.861 2-.778 2-.417 1-.805 2-.778 2-.861 2-.5 1-.861 2-.778 2-.805 2-.417 1-.778 2-.861 2-.5 1-.861 2-.778 2-.861 2-.5 1-.861 2-.778 2-.417 1-.805 2-.778 2-.861 2-.5 1-.861 2-.778 2-.805 2-.417 1-.695 2-.444 2-.083 1 .333 2 1 1.972 1.583 1.695.945.611.972.389 1 .222 2 .083 1-.055 1.917-.417 1.666-1 .695-.75.639-.833 1.027-1.917.417-1 .889-2 .917-2 .444-1 .778-2 .805-2 .417-1 .778-2 .417-1 .805-2 .778-2 .417-1 .805-2 .778-2 .444-1 .417-1 .5-1 .861-2 .778-2 .805-2 .417-1 .778-2 .805-2 .417-1 .778-2 .417-1 .805-2 .778-2 .861-2 .5-1 .417-1 .444-1 .778-2 .805-2 .417-1 .778-2 .805-2 .417-1 .778-2 .417-1 .805-2 .778-2 .861-2 .5-1 .861-2 .778-2 .805-2 .417-1 .778-2 .417-1 .805-2 .722-1.944.223-.556.444-1.5z"/>
    <path fill="#b9babf" d="m145 124 1 1-1-1z"/>
    <path fill="#bebfc3" d="m218 124 1 1-1-1z"/>
    <path fill="#313443" d="M269 218h-2l-.278-1.5-.194-.556-.722-1.944-.417-1-.778-2-.417-1-.805-2-.778-2-.861-2-.5-1-.861-2-.778-2-.805-2-.417-1-.778-2-.417-1-.805-2-.778-2-.861-2-.5-1-.861-2-.778-2-.805-2-.417-1-.778-2-.861-2-.5-1-.861-2-.778-2-.417-1-.805-2-.778-2-.861-2-.5-1-.861-2-.778-2-.417-1-.805-2-.389-1-.833-2-.417-1-.5-1-.861-2-.778-2-.417-1-.805-2-.778-2-.861-2-.5-1-.861-2-.778-2-.417-1-.805-2-.806-2-1.083-1.917-.75-.833-.833-.75-1.917-1-1-.25-1-.167-2-.055-1.972.305-.945.389-1.583 1.389-1 1.889-.333 2 .083 1 .444 2 .695 2 .417 1 .805 2 .778 2 .861 2 .5 1 .861 2 .778 2 .861 2 .528 1 .444 1 .528 1 .861 2 .778 2 .861 2 .5 1 .861 2 .778 2 .861 2 .528 1 .972 2 .861 2 .778 2 .861 2 .5 1 .861 2 .778 2 .861 2 .528 1 .972 2 .861 2 .778 2 .861 2 .5 1 .861 2 .778 2 .861 2 .5 1 .861 2 .778 2 .861 2 .528 1 .972 2 .417 1 .444 1 .778 2 .861 2 .5 1 .861 2 .778 2 .444 1 .417 1 .972 2 .528 1 .861 2 .778 2 .861 2 .5 1 .861 2 .389 1 .889 2 1.139 1.917 1.389 1.583 1.666 1 .945.25 1.972.194 2-.194.972-.25 1.778-1 .778-.75 1.222-1.778 1-1.972.417-1 .444-1 .778-2 .861-2 .528-1 .972-2 .861-2 .778-2 .861-2 .5-1 .861-2 .778-2 .444-1 .945-2 .444-1 .528-1 .861-2 .778-2 .861-2 .5-1 .861-2 .778-2 .861-2 .528-1 .972-2 .417-1 .444-1 .778-2 .861-2 .5-1 .861-2 .778-2 .861-2 .5-1 .861-2 .778-2 .861-2 .528-1 .972-2 .861-2 .778-2 .861-2 .5-1 .861-2 .778-2 .861-2 .972-2 .528-1 .861-2 .778-2 .861-2 .5-1 .861-2 .778-2 .861-2 .5-1 .861-2 .778-2 .778-2 .361-1 .222-1 .194-2-.055-1-.222-1-.389-.972-1.389-1.695-.917-.611-.972-.389-2-.305-2 .055-1.972.417-1.778 1-.75.75-1.083 1.778L306 129l-.389 1-.861 2-.5 1-.861 2-.778 2-.861 2-.5 1-.861 2-.778 2-.417 1-.805 2-.778 2-.861 2-.5 1-.861 2-.778 2-.861 2-.5 1-.861 2-.778 2-.861 2-.5 1-.861 2-.778 2-.805 2-.417 1-.778 2-.861 2-.5 1-.861 2-.778 2-.861 2-.5 1-.861 2-.778 2-.417 1-.805 2-.778 2-.861 2-.5 1-.861 2-.778 2-.861 2-.5 1-.861 2-.778 2-.861 2-.5 1-.861 2-.695 1.944-.444 1.556-.25 1.5z"/>
    <path fill="#72747f" d="m226 124 1 1-1-1z"/>
    <path fill="#7b7d86" d="m309 124 1 1-1-1z"/>
    <path fill="#a4a6ac" d="m317 124 1 1-1-1z"/>
    <path fill="#888992" d="m373 124 1 1-1-1z"/>
    <path fill="#313443" d="M385 225v-92l-.028-1-.222-2-.25-1-1-1.972-1.583-1.695-.945-.611-.972-.389-2-.305h-1l-1 .055-1.917.417-1.666 1-.695.75-.611.833-.805 1.917-.195 1-.111 2v100l.083 2 .167 1 .25.972 1 1.778 1.583 1.306.945.444 1.972.417 2 .083h61l1-.028 1-.083 1.972-.611 1.778-1.389 1.306-1.889.444-1 .333-2-.305-2-.806-1.917-1.194-1.583-1.611-1.083-1.917-.723-2-.472-1-.139-2-.083h-51z"/>
    <path fill="#cccdd0" d="m381 124 1 1-1-1z"/>
    <path fill="#6f717c" d="m531 124 1 1-1-1z"/>
    <path fill="#313443" d="m535 149 1 1.5.222.556.556 1 .389.944.444 1 .778 2 .805 2 .417 1 .778 2 .417 1 .805 2 .778 2 .417 1 .805 2 .778 2 .417 1 .805 2 .778 2 .417 1 .805 2 .778 2 .861 2 .5 1 .861 2 .778 2 .805 2 .417 1 .778 2 .805 2 .417 1 .778 2 .417 1 .805 2 .778 2 .805 2 .417 1 .778 2 .417 1 .388 1 .806 2 .806 2 .388 1 .417 1 .778 2 .805 2 .417 1 .778 2 .417 1 .805 2 .778 2 .417 1 .805 2 .778 2 .444 1 1.028 2 1.389 1.889 1.778 1.389 1.972.611 2 .083 1-.083 1-.195.972-.333.945-.472 1.583-1.306 1-1.666.417-1.917v-2l-.334-2-.277-1-.695-2-.861-2-.5-1-.861-2-.778-2-.861-2-.5-1-.861-2-.778-2-.805-2-.417-1-.778-2-.861-2-.5-1-.861-2-.778-2-.417-1-.805-2-.778-2-.861-2-.5-1-.861-2-.778-2-.861-2-.5-1-.861-2-.778-2-.805-2-.417-1-.778-2-.861-2-.5-1-.861-2-.778-2-.805-2-.417-1-.778-2-.861-2-.5-1-.861-2-.778-2-.861-2-.5-1-.861-2-.778-2-.805-2-.417-1-.778-2-.861-2-.5-1-.861-2-.778-2-.805-2-.417-1-.778-2-.861-2-.528-1-1-2-.472-.972-1.222-1.778-.778-.75-1.778-1-1.972-.417-1-.027-1 .027-1.972.417-1.778 1-.778.75-1.222 1.778-1 1.972-.417 1-.444 1-.778 2-.861 2-.5 1-.861 2-.778 2-.805 2-.417 1-.778 2-.861 2-.5 1-.417 1-.444 1-.778 2-.417 1-.805 2-.778 2-.861 2-.5 1-.861 2-.778 2-.861 2-.5 1-.861 2-.778 2-.417 1-.805 2-.778 2-.861 2-.5 1-.861 2-.778 2-.417 1-.805 2-.778 2-.861 2-.5 1-.861 2-.778 2-.861 2-.5 1-.861 2-.778 2-.805 2-.417 1-.778 2-.861 2-.5 1-.861 2-.778 2-.805 2-.417 1-.778 2-.861 2-.5 1-.861 2-.778 2-.417 1-.722 2-.361 2 .139 2 .25 1 1 1.972.75.917 1.778 1.389.972.389 2 .305 2-.083 1-.222.972-.389 1.778-1.389 1.389-1.889.611-1 .472-1 .528-1 .861-2 .778-2 .805-2 .417-1 .778-2 .805-2 .417-1 .778-2 .417-1 .805-2 .778-2 .861-2 .5-1 .417-1 .444-1 .778-2 .805-2 .417-1 .778-2 .805-2 .417-1 .778-2 .417-1 .805-2 .778-2 .861-2 .5-1 .861-2 .778-2 .805-2 .417-1 .778-2 .805-2 .417-1 .778-2 .417-1 .805-2 .778-2 .861-2 .5-1 .861-2 .778-2 .805-2 .417-1 .778-2 .417-1 .805-2 .778-2 .417-.944.388-1 .306-.556.5-1.5z"/>
    <path fill="#60626e" d="m538 124 1 1-1-1z"/>
    <path fill="#cfcfd3" d="m539 124 1 1-1-1z"/>
    <path fill="#9798a0" d="m637 124 1 1-1-1z"/>
    <path fill="#313443" d="m649 160 1.222 1.5.972 1.556.556.944.472 1 .556 1 .444 1 .556 1 .444 1 .556 1 .444 1 1 2 .556 1 .444 1 .556 1 .444 1 .556 1 .444 1 1 2 .556 1 .444 1 .556 1 .444 1 .556 1 .444 1 1 2 .556 1 .444 1 .556 1 .444 1 .556 1 .444 1 .556 1 .444 1 .556 1 .444 1 .556 1 .444 1 .556 1 .444 1 1 2 .556 1 .444 1 .556 1 .444 1 .556 1 .444 1 .556 1 .444 1 .556 1 .444 1 .556 1 .444 1 1 2 .556 1 .444 1 .556 1 .444 1 .556 1 .444 1 .556 1 .444 1 .556 1 .444 1 .556 1 .472 1 1.222 1.917.778.833.833.75 1.917 1 1 .222 2 .028 1-.167 1.972-.694.945-.528 1.611-1.472L699.75 231l1.028-2 .444-1 .556-1 .444-1 1-2 .556-1 .444-1 .945-2 .444-1 .778-2 .444-1 .417-1 .972-2 .556-1 .444-1 .556-1 .444-1 .556-1 1-2 .444-1 .556-1 .444-1 .556-1 .444-1 .556-1 .444-1 .556-1 .444-1 .556-1 .444-1 .556-1 .444-1 .556-1 1-2 .444-1 .556-1 .444-1 .556-1 .444-1 .556-1 .444-1 .556-1 .444-1 .556-1 .444-1 1-2 .556-1 .444-1 .556-1 .444-1 .556-1 .444-1 .556-1 .972-2 .417-1 .444-1 .778-2 .861-2 .917-1.944.333-.556.5-1.5.722 1.5.028.556.194 1 .028.944.028 1v69l.083 2 .417 1.972 1 1.778.75.75 1.778 1 1.972.417h2l2-.417 1.889-1 .805-.75 1.195-1.778.389-.972.305-1 .334-2 .055-1 .028-1v-96l-.028-2-.055-1-.417-2-.444-1-.556-.972-1.583-1.695-.945-.611-.972-.389-1-.222-2-.083-1 .055-1.972.417-1.778 1-.778.75-1.222 1.778-.472.972-1 2-.556 1-.444 1-.556 1-.444 1-.556 1-.444 1-.556 1-.444 1-1 2-.556 1-.444 1-.556 1-.444 1-.556 1-.972 2-.417 1-.444 1-.778 2-.861 2-.528 1-.444 1-.556 1-.444 1-.556 1-.444 1-1 2-.556 1-.444 1-.556 1-.444 1-.556 1-.444 1-.556 1-.444 1-1 2-.556 1-.444 1-.556 1-.444 1-.556 1-.444 1-.556 1-.444 1-1 2-.528 1-.417 1-.444 1-.778 2-.444 1-.417 1-.528 1-1 2-.444 1-.556 1-.444 1-1 2-.556 1-.444 1-.556 1-.444 1-.556 1-.444 1-.556 1-.444 1-.556 1-1 2-.444 1-.556 1-.444 1-.528 1-.778 1.944-.389 1.556L694 217l-1.222-.778-.361-.528-.611-.805-1.028-1.889-1-2-.556-1-.444-1-.556-1-.444-1-1-2-.556-1-.444-1-.556-1-.444-1-.556-1-1-2-.444-1-.556-1-.444-1-.556-1-.444-1-.556-1-.444-1-.556-1-1-2-.444-1-.556-1-.972-2-.417-1-.444-1-.778-2-.861-2-.528-1-.444-1-.556-1-.444-1-.556-1-.444-1-1-2-.556-1-.444-1-1-2-.556-1-.444-1-.556-1-.444-1-.556-1-.444-1-.556-1-.444-1-.556-1-.444-1-.556-1-.444-1-.556-1-.444-1-.556-1-1-2-.444-1-.556-1-.444-1-.556-1-.444-1-.556-1-1-2-.444-1-.556-1-1-2-.444-1-.556-1-.444-1-.556-1-1-2-.472-1-1.222-2-1.611-1.889-1.917-1.389-2-.611-1-.083h-1l-1 .083-2 .611-1.889 1.389-.778.917-.611.972-.389 1-.222 1-.111 2v99l.028 2 .305 2 .389 1 .611.972.778.917 1.889 1.389 2 .611 1 .083h1l1-.055 1.917-.417 1.666-1 1.306-1.583.805-1.917.195-1 .083-1 .028-2v-71z"/>
    <path fill="#9798a0" d="m645 124 1 1-1-1z"/>
    <path fill="#7d7f89" d="m739 124 1 1-1-1z"/>
    <path fill="#bcbdc2" d="m747 124 1 1-1-1z"/>
    <path fill="#a7a8ae" d="m146 125 1 1-1-1z"/>
    <path fill="#a5a7ad" d="m217 125 1 1-1-1z"/>
    <path fill="#c0c0c5" d="m307 125 1 1-1-1z"/>
    <path fill="#757781" d="m318 125 1 1-1-1z"/>
    <path fill="#a4a5ab" d="m382 125 1 1-1-1z"/>
    <path fill="#c7c8cc" d="m540 125 1 1-1-1z"/>
    <path fill="#646671" d="m636 125 1 1-1-1z"/>
    <path fill="#7d7f89" d="m646 125 1 1-1-1z"/>
    <path fill="#9798a0" d="m748 125 1 1-1-1z"/>
    <path fill="#5e606c" d="m135 126 1 1-1-1z"/>
    <path fill="#bebfc3" d="m147 126 1 1-1-1z"/>
    <path fill="#a5a7ad" d="m319 126 1 1-1-1z"/>
    <path fill="#5e606c" d="m371 126 1 1-1-1z"/>
    <path fill="#bbbcc1" d="m383 126 1 1-1-1z"/>
    <path fill="#71737d" d="m635 126 1 1-1-1z"/>
    <path fill="#898b94" d="m647 126 1 1-1-1z"/>
    <path fill="#b0b1b6" d="m749 126 1 1-1-1z"/>
    <path fill="#abacb2" d="m134 127 1 1-1-1z"/>
    <path fill="#757781" d="m216 127 1 1-1-1z"/>
    <path fill="#a0a1a8" d="m306 127 1 1-1-1z"/>
    <path fill="#9e9fa6" d="m370 127 1 1-1-1z"/>
    <path fill="#81828c" d="m528 127 1 1-1-1z"/>
    <path fill="#6e707b" d="m541 127 1 1-1-1z"/>
    <path fill="#bcbdc2" d="m634 127 1 1-1-1m14 0 1 1-1-1z"/>
    <path fill="#898b94" d="m736 127 1 1-1-1z"/>
    <path fill="#a3a4ab" d="m148 128 1 1-1-1z"/>
    <path fill="#abacb2" d="m230 128 1 1-1-1z"/>
    <path fill="#adaeb4" d="M320 128v4l.722-.778.167-1.222-.167-.722v-.5L320 128z"/>
    <path fill="#989aa1" d="m384 128 1 1-1-1z"/>
    <path fill="#cccdd0" d="m542 128 1 1-1-1z"/>
    <path fill="#a3a4ab" d="m750 128 1 1-1-1z"/>
    <path fill="#a8a9af" d="m133 129 1 1-1-1z"/>
    <path fill="#c3c4c8" d="m305 129 1 1-1-1z"/>
    <path fill="#a1a3a9" d="M369 129v106l.722-.778.028-.528.194-.805.028-.917L370 230v-96l-.028-1.972-.028-.917-.194-.805-.028-.528L369 129z"/>
    <path fill="#7d7f89" d="m527 129 1 1-1-1z"/>
    <path fill="#6e707b" d="m542 129 1 1-1-1z"/>
    <path fill="#b0b1b6" d="m649 129 1 1-1-1z"/>
    <path fill="#7d7f88" d="m735 129 1 1-1-1z"/>
    <path fill="#bcbcc1" d="m149 130 1 1-1-1z"/>
    <path fill="#cccdd0" d="m231 130 1 1-1-1z"/>
    <path fill="#6c6e79" d="m305 130 1 1-1-1z"/>
    <path fill="#c9cace" d="M633 130v104l.722-.778.028-.528.194-.805.028-.917L634 229v-94l-.028-1.972-.028-.917-.194-.805-.028-.528L633 130z"/>
    <path fill="#c8c9cd" d="m132 131 1 1-1-1z"/>
    <path fill="#666873" d="m149 131 1 1-1-1z"/>
    <path fill="#797b84" d="m231 131 1 1-1-1z"/>
    <path fill="#9e9fa6" d="m526 131 1 1-1-1z"/>
    <path fill="#8f9199" d="m543 131 1 1-1-1z"/>
    <path fill="#b0b1b6" d="m650 131 1 1-1-1z"/>
    <path fill="#7d7f88" d="m734 131 1 1-1-1z"/>
    <path fill="#73757f" d="m132 132 1 1-1-1z"/>
    <path fill="#676974" d="m216 132 1 1-1-1z"/>
    <path fill="#8c8d96" d="m304 132 1 1-1-1z"/>
    <path fill="#868891" d="m150 133 1 1-1-1z"/>
    <path fill="#a4a5ab" d="m216 133 1 1-1-1z"/>
    <path fill="#9b9ca3" d="m232 133 1 1-1-1z"/>
    <path fill="#80828b" d="m319 133 1 1-1-1z"/>
    <path fill="#c0c0c5" d="m525 133 1 1-1-1z"/>
    <path fill="#b0b1b6" d="m544 133 1 1-1-1m107 0 1 1-1-1z"/>
    <path fill="#7d7f88" d="m733 133 1 1-1-1z"/>
    <path fill="#95969e" d="m131 134 1 1-1-1z"/>
    <path fill="#abacb2" d="m303 134 1 1-1-1z"/>
    <path fill="#6a6c77" d="m525 134 1 1-1-1z"/>
    <path fill="#a8a9af" d="m151 135 1 1-1-1z"/>
    <path fill="#7c7e87" d="m217 135 1 1-1-1z"/>
    <path fill="#bcbdc2" d="m233 135 1 1-1-1z"/>
    <path fill="#5e616c" d="m318 135 1 1-1-1z"/>
    <path fill="#b0b1b6" d="m652 135 1 1-1-1z"/>
    <path fill="#96989f" d="m732 135 1 1-1-1z"/>
    <path fill="#b5b6bb" d="m130 136 1 1-1-1z"/>
    <path fill="#676974" d="m233 136 1 1-1-1z"/>
    <path fill="#cacbce" d="m302 136 1 1-1-1z"/>
    <path fill="#b8b9be" d="m318 136 1 1-1-1z"/>
    <path fill="#8b8d95" d="m524 136 1 1-1-1z"/>
    <path fill="#7b7d86" d="m545 136 1 1-1-1z"/>
    <path fill="#60626e" d="m130 137 1 1-1-1z"/>
    <path fill="#c8c9cd" d="m152 137 1 1-1-1z"/>
    <path fill="#626570" d="m218 137 1 1-1-1z"/>
    <path fill="#747680" d="m302 137 1 1-1-1z"/>
    <path fill="#b0b1b6" d="m653 137 1 1-1-1z"/>
    <path fill="#96989f" d="m731 137 1 1-1-1z"/>
    <path fill="#72747f" d="m152 138 1 1-1-1z"/>
    <path fill="#bcbcc1" d="m218 138 1 1-1-1z"/>
    <path fill="#898b94" d="m234 138 1 1-1-1z"/>
    <path fill="#9d9fa6" d="m317 138 1 1-1-1z"/>
    <path fill="#acadb3" d="m523 138 1 1-1-1z"/>
    <path fill="#9c9da4" d="m546 138 1 1-1-1z"/>
    <path fill="#81828c" d="m129 139 1 1-1-1z"/>
    <path fill="#93949c" d="m301 139 1 1-1-1z"/>
    <path fill="#b0b1b6" d="m654 139 1 1-1-1z"/>
    <path fill="#96989f" d="m730 139 1 1-1-1z"/>
    <path fill="#94959d" d="m153 140 1 1-1-1z"/>
    <path fill="#a2a3aa" d="m219 140 1 1-1-1z"/>
    <path fill="#acadb3" d="m235 140 1 1-1-1z"/>
    <path fill="#83858e" d="m316 140 1 1-1-1z"/>
    <path fill="#cdced1" d="m522 140 1 1-1-1z"/>
    <path fill="#bdbec3" d="m547 140 1 1-1-1z"/>
    <path fill="#a1a3a9" d="m128 141 1 1-1-1z"/>
    <path fill="#b2b3b9" d="m300 141 1 1-1-1z"/>
    <path fill="#777983" d="m522 141 1 1-1-1z"/>
    <path fill="#676974" d="m547 141 1 1-1-1z"/>
    <path fill="#b0b1b6" d="m655 141 1 1-1-1z"/>
    <path fill="#96989f" d="m729 141 1 1-1-1z"/>
    <path fill="#b4b5bb" d="m154 142 1 1-1-1z"/>
    <path fill="#898a93" d="m220 142 1 1-1-1z"/>
    <path fill="#cecfd2" d="m236 142 1 1-1-1z"/>
    <path fill="#696b76" d="m315 142 1 1-1-1z"/>
    <path fill="#c3c4c8" d="m127 143 1 1-1-1z"/>
    <path fill="#5e616c" d="m154 143 1 1-1-1z"/>
    <path fill="#797b84" d="m236 143 1 1-1-1z"/>
    <path fill="#c2c3c7" d="m315 143 1 1-1-1z"/>
    <path fill="#989aa1" d="m521 143 1 1-1-1z"/>
    <path fill="#888992" d="m548 143 1 1-1-1z"/>
    <path fill="#b0b1b6" d="m656 143 1 1-1-1m72 0 1 1-1-1z"/>
    <path fill="#6e707a" d="m127 144 1 1-1-1z"/>
    <path fill="#6e707b" d="m221 144 1 1-1-1z"/>
    <path fill="#7c7e87" d="m299 144 1 1-1-1z"/>
    <path fill="#80828b" d="m155 145 1 1-1-1z"/>
    <path fill="#c7c8cc" d="m221 145 1 1-1-1z"/>
    <path fill="#9b9ca3" d="m237 145 1 1-1-1z"/>
    <path fill="#a8a9af" d="m314 145 1 1-1-1z"/>
    <path fill="#b9babf" d="m520 145 1 1-1-1z"/>
    <path fill="#a9aab1" d="m549 145 1 1-1-1z"/>
    <path fill="#b0b1b6" d="m657 145 1 1-1-1m70 0 1 1-1-1z"/>
    <path fill="#8e9098" d="m126 146 1 1-1-1z"/>
    <path fill="#9b9ca3" d="m298 146 1 1-1-1z"/>
    <path fill="#646671" d="m520 146 1 1-1-1z"/>
    <path fill="#a0a2a9" d="m156 147 1 1-1-1z"/>
    <path fill="#aeafb5" d="m222 147 1 1-1-1z"/>
    <path fill="#bdbec3" d="m238 147 1 1-1-1z"/>
    <path fill="#8e9098" d="m313 147 1 1-1-1z"/>
    <path fill="#cacbce" d="m550 147 1 1-1-1z"/>
    <path fill="#b0b1b6" d="m658 147 1 1-1-1m68 0 1 1-1-1z"/>
    <path fill="#afb0b6" d="m125 148 1 1-1-1z"/>
    <path fill="#696b76" d="m238 148 1 1-1-1z"/>
    <path fill="#babbc0" d="m297 148 1 1-1-1z"/>
    <path fill="#858790" d="m519 148 1 1-1-1z"/>
    <path fill="#757781" d="m550 148 1 1-1-1z"/>
    <path fill="#c2c3c7" d="m157 149 1 1-1-1z"/>
    <path fill="#95969e" d="m223 149 1 1-1-1z"/>
    <path fill="#646671" d="m297 149 1 1-1-1z"/>
    <path fill="#747680" d="m312 149 1 1-1-1z"/>
    <path fill="#c5c6ca" d="m535 149 1 1-1-1z"/>
    <path fill="#b0b1b6" d="m659 149 1 1-1-1m66 0 1 1-1-1z"/>
    <path fill="#d0d1d4" d="m124 150 1 1-1-1z"/>
    <path fill="#696b76" d="m140 150 1 1-1-1z"/>
    <path fill="#777983" d="m142 150 1 1-1-1z"/>
    <path fill="#6c6e79" d="m157 150 1 1-1-1z"/>
    <path fill="#8b8d95" d="m239 150 1 1-1-1z"/>
    <path fill="#cdced1" d="m312 150 1 1-1-1z"/>
    <path fill="#a6a7ae" d="m518 150 1 1-1-1z"/>
    <path fill="#92949c" d="m534 150 1 1-1-1z"/>
    <path fill="#95979e" d="m551 150 1 1-1-1z"/>
    <path fill="#7a7c86" d="m124 151 1 1-1-1z"/>
    <path fill="#bcbdc2" d="m140 151 1 1-1-1z"/>
    <path fill="#c9cace" d="m142 151 1 1-1-1z"/>
    <path fill="#7b7d86" d="m224 151 1 1-1-1z"/>
    <path fill="#84868e" d="m296 151 1 1-1-1z"/>
    <path fill="#a0a1a8" d="m536 151 1 1-1-1z"/>
    <path fill="#b0b1b6" d="m660 151 1 1-1-1z"/>
    <path fill="#bcbdc2" d="m724 151 1 1-1-1z"/>
    <path fill="#8d8e96" d="m158 152 1 1-1-1z"/>
    <path fill="#acaeb3" d="m240 152 1 1-1-1z"/>
    <path fill="#b3b4b9" d="m311 152 1 1-1-1z"/>
    <path fill="#c7c7cb" d="m517 152 1 1-1-1z"/>
    <path fill="#6d6f79" d="m533 152 1 1-1-1z"/>
    <path fill="#b6b7bc" d="m552 152 1 1-1-1z"/>
    <path fill="#646671" d="m724 152 1 1-1-1z"/>
    <path fill="#9c9da4" d="m123 153 1 1-1-1z"/>
    <path fill="#9798a0" d="m139 153 1 1-1-1z"/>
    <path fill="#a1a3a9" d="m143 153 1 1-1-1z"/>
    <path fill="#61636f" d="m225 153 1 1-1-1z"/>
    <path fill="#a3a4ab" d="m295 153 1 1-1-1z"/>
    <path fill="#71747e" d="m517 153 1 1-1-1z"/>
    <path fill="#c0c1c6" d="m533 153 1 1-1-1z"/>
    <path fill="#787a84" d="m537 153 1 1-1-1z"/>
    <path fill="#60626e" d="m552 153 1 1-1-1z"/>
    <path fill="#b0b1b6" d="m661 153 1 1-1-1z"/>
    <path fill="#c9cace" d="m723 153 1 1-1-1z"/>
    <path fill="#adaeb4" d="m159 154 1 1-1-1z"/>
    <path fill="#babbc0" d="m225 154 1 1-1-1z"/>
    <path fill="#cfcfd3" d="m241 154 1 1-1-1z"/>
    <path fill="#989aa1" d="m310 154 1 1-1-1z"/>
    <path fill="#cacbce" d="m537 154 1 1-1-1z"/>
    <path fill="#646671" d="m723 154 1 1-1-1z"/>
    <path fill="#bcbdc2" d="m122 155 1 1-1-1z"/>
    <path fill="#71747e" d="m138 155 1 1-1-1z"/>
    <path fill="#797b85" d="m144 155 1 1-1-1z"/>
    <path fill="#7a7c86" d="m241 155 1 1-1-1z"/>
    <path fill="#c2c3c7" d="m294 155 1 1-1-1z"/>
    <path fill="#92949c" d="m516 155 1 1-1-1z"/>
    <path fill="#9b9ca3" d="m532 155 1 1-1-1z"/>
    <path fill="#81838c" d="m553 155 1 1-1-1z"/>
    <path fill="#b0b1b6" d="m662 155 1 1-1-1z"/>
    <path fill="#c9cace" d="m722 155 1 1-1-1z"/>
    <path fill="#676974" d="m122 156 1 1-1-1z"/>
    <path fill="#c5c6ca" d="m138 156 1 1-1-1z"/>
    <path fill="#cbccd0" d="m144 156 1 1-1-1z"/>
    <path fill="#cecfd2" d="m160 156 1 1-1-1z"/>
    <path fill="#a0a2a9" d="m226 156 1 1-1-1z"/>
    <path fill="#6c6e79" d="m294 156 1 1-1-1z"/>
    <path fill="#7e8089" d="m309 156 1 1-1-1z"/>
    <path fill="#a2a3aa" d="m538 156 1 1-1-1z"/>
    <path fill="#646671" d="m722 156 1 1-1-1z"/>
    <path fill="#797b84" d="m160 157 1 1-1-1z"/>
    <path fill="#9c9ea5" d="m242 157 1 1-1-1z"/>
    <path fill="#b4b5ba" d="m515 157 1 1-1-1z"/>
    <path fill="#767882" d="m531 157 1 1-1-1z"/>
    <path fill="#a2a3aa" d="m554 157 1 1-1-1z"/>
    <path fill="#b0b1b6" d="m663 157 1 1-1-1z"/>
    <path fill="#c9cace" d="m721 157 1 1-1-1z"/>
    <path fill="#888992" d="m121 158 1 1-1-1z"/>
    <path fill="#a0a2a9" d="m137 158 1 1-1-1z"/>
    <path fill="#a4a5ab" d="m145 158 1 1-1-1z"/>
    <path fill="#878991" d="m227 158 1 1-1-1z"/>
    <path fill="#8b8d95" d="m293 158 1 1-1-1z"/>
    <path fill="#656772" d="m308 158 1 1-1-1z"/>
    <path fill="#5e606c" d="m515 158 1 1-1-1z"/>
    <path fill="#cacbce" d="m531 158 1 1-1-1z"/>
    <path fill="#7a7c86" d="m539 158 1 1-1-1z"/>
    <path fill="#646671" d="m721 158 1 1-1-1z"/>
    <path fill="#636571" d="m735 158-1 2 1.083-1 .334-.333L735 158z"/>
    <path fill="#999ba2" d="m161 159 1 1-1-1z"/>
    <path fill="#bfc0c4" d="m243 159 1 1-1-1z"/>
    <path fill="#bdbec3" d="m308 159 1 1-1-1z"/>
    <path fill="#cccdd0" d="m539 159 1 1-1-1z"/>
    <path fill="#c3c4c8" d="m555 159 1 1-1-1z"/>
    <path fill="#b0b1b6" d="m664 159 1 1-1-1z"/>
    <path fill="#c9cace" d="m720 159 1 1-1-1z"/>
    <path fill="#96989f" d="M735 159v76l.722-.778.028-.528.194-.805.028-.917L736 231v-68l-.028-.972-.028-.917-.194-.805-.028-.528L735 159z"/>
    <path fill="#a9aab1" d="m120 160 1 1-1-1z"/>
    <path fill="#7b7d86" d="m136 160 1 1-1-1z"/>
    <path fill="#7c7e87" d="m146 160 1 1-1-1z"/>
    <path fill="#6d6f79" d="m228 160 1 1-1-1z"/>
    <path fill="#6a6c77" d="m243 160 1 1-1-1z"/>
    <path fill="#abacb2" d="m292 160 1 1-1-1z"/>
    <path fill="#7f818a" d="m514 160 1 1-1-1z"/>
    <path fill="#a4a6ac" d="m530 160 1 1-1-1z"/>
    <path fill="#6e707a" d="m555 160 1 1-1-1z"/>
    <path fill="#96989f" d="m649 160 1 1-1-1z"/>
    <path fill="#7d7f88" d="m720 160 1 1-1-1z"/>
    <path fill="#c9cace" d="m734 160 1 1-1-1z"/>
    <path fill="#cfcfd3" d="m136 161 1 1-1-1z"/>
    <path fill="#cdced1" d="m146 161 1 1-1-1z"/>
    <path fill="#babbc0" d="m162 161 1 1-1-1z"/>
    <path fill="#c6c7cb" d="m228 161 1 1-1-1z"/>
    <path fill="#a4a5ab" d="m307 161 1 1-1-1m233 0 1 1-1-1z"/>
    <path fill="#c9cace" d="M649 161v73l.722-.778.028-.528.194-.805.028-.917L650 230v-62l.083-2 .195-1.972.055-.917-.222-.805-.055-.528L649 161z"/>
    <path fill="#636571" d="m650 161 1 1-1-1z"/>
    <path fill="#b0b1b6" d="m665 161 1 1-1-1z"/>
    <path fill="#636571" d="m733 161 1 1-1-1z"/>
    <path fill="#cacbce" d="m119 162 1 1-1-1z"/>
    <path fill="#656772" d="m162 162 1 1-1-1z"/>
    <path fill="#8c8d96" d="m244 162 1 1-1-1z"/>
    <path fill="#cacbce" d="m291 162 1 1-1-1z"/>
    <path fill="#a0a1a8" d="m513 162 1 1-1-1z"/>
    <path fill="#7f818a" d="m529 162 1 1-1-1z"/>
    <path fill="#8e9098" d="m556 162 1 1-1-1z"/>
    <path fill="#7d7f88" d="m719 162 1 1-1-1z"/>
    <path fill="#c9cace" d="m733 162 1 1-1-1z"/>
    <path fill="#757781" d="m119 163 1 1-1-1z"/>
    <path fill="#a9aab1" d="m135 163 1 1-1-1z"/>
    <path fill="#a5a7ad" d="m147 163 1 1-1-1z"/>
    <path fill="#acaeb3" d="m229 163 1 1-1-1z"/>
    <path fill="#747680" d="m291 163 1 1-1-1z"/>
    <path fill="#898b94" d="m306 163 1 1-1-1z"/>
    <path fill="#7c7e87" d="m541 163 1 1-1-1z"/>
    <path fill="#636571" d="m651 163 1 1-1-1z"/>
    <path fill="#b0b1b6" d="m666 163 1 1-1-1z"/>
    <path fill="#636571" d="m732 163 1 1-1-1z"/>
    <path fill="#858790" d="m163 164 1 1-1-1z"/>
    <path fill="#aeafb5" d="m245 164 1 1-1-1z"/>
    <path fill="#c0c1c6" d="m512 164 1 1-1-1z"/>
    <path fill="#cecfd2" d="m541 164 1 1-1-1z"/>
    <path fill="#afb0b6" d="m557 164 1 1-1-1z"/>
    <path fill="#c9cace" d="m651 164 1 1-1-1z"/>
    <path fill="#7d7f88" d="m718 164 1 1-1-1z"/>
    <path fill="#c9cace" d="m732 164 1 1-1-1z"/>
    <path fill="#95979e" d="m118 165 1 1-1-1z"/>
    <path fill="#85868f" d="m134 165 1 1-1-1z"/>
    <path fill="#7d7f89" d="m148 165 1 1-1-1z"/>
    <path fill="#93949c" d="m230 165 1 1-1-1m60 0 1 1-1-1z"/>
    <path fill="#6f717c" d="m305 165 1 1-1-1z"/>
    <path fill="#6b6d78" d="m512 165 1 1-1-1z"/>
    <path fill="#aeafb5" d="m528 165 1 1-1-1z"/>
    <path fill="#636571" d="m652 165 1 1-1-1z"/>
    <path fill="#b0b1b6" d="m667 165 1 1-1-1z"/>
    <path fill="#cfd0d3" d="m148 166 1 1-1-1z"/>
    <path fill="#a6a7ae" d="m164 166 1 1-1-1z"/>
    <path fill="#d0d1d4" d="m246 166 1 1-1-1z"/>
    <path fill="#c8c9cd" d="m305 166 1 1-1-1z"/>
    <path fill="#a6a7ae" d="m542 166 1 1-1-1z"/>
    <path fill="#cfd0d3" d="m558 166 1 1-1-1z"/>
    <path fill="#c9cace" d="m652 166 1 1-1-1z"/>
    <path fill="#7d7f88" d="m717 166 1 1-1-1z"/>
    <path fill="#b0b1b6" d="m731 166 1 1-1-1z"/>
    <path fill="#b7b8bd" d="m117 167 1 1-1-1z"/>
    <path fill="#5f626d" d="m133 167 1 1-1-1z"/>
    <path fill="#797b85" d="m231 167 1 1-1-1z"/>
    <path fill="#7c7e87" d="m246 167 1 1-1-1z"/>
    <path fill="#b3b4b9" d="m289 167 1 1-1-1z"/>
    <path fill="#8d8e96" d="m511 167 1 1-1-1z"/>
    <path fill="#898a93" d="m527 167 1 1-1-1z"/>
    <path fill="#7a7c86" d="m558 167 1 1-1-1z"/>
    <path fill="#636571" d="m653 167 1 1-1-1z"/>
    <path fill="#b0b1b6" d="m668 167 1 1-1-1z"/>
    <path fill="#61636f" d="m117 168 1 1-1-1z"/>
    <path fill="#b3b4b9" d="m133 168 1 1-1-1z"/>
    <path fill="#a8a9af" d="m149 168 1 1-1-1z"/>
    <path fill="#c7c8cc" d="m165 168 1 1-1-1z"/>
    <path fill="#aeafb5" d="m304 168 1 1-1-1z"/>
    <path fill="#7e8089" d="m543 168 1 1-1-1z"/>
    <path fill="#c9cace" d="m653 168 1 1-1-1z"/>
    <path fill="#898b94" d="m716 168 1 1-1-1z"/>
    <path fill="#b0b1b6" d="m730 168 1 1-1-1z"/>
    <path fill="#71747e" d="m165 169 1 1-1-1z"/>
    <path fill="#5f626d" d="m232 169 1 1-1-1z"/>
    <path fill="#9d9fa6" d="m247 169 1 1-1-1z"/>
    <path fill="#adaeb4" d="m510 169 1 1-1-1z"/>
    <path fill="#636571" d="m526 169 1 1-1-1z"/>
    <path fill="#d0d1d4" d="m543 169 1 1-1-1z"/>
    <path fill="#9b9ca3" d="m559 169 1 1-1-1z"/>
    <path fill="#636571" d="m654 169 1 1-1-1z"/>
    <path fill="#b0b1b6" d="m669 169 1 1-1-1z"/>
    <path fill="#82848d" d="m116 170 1 1-1-1z"/>
    <path fill="#8d8f97" d="m132 170 1 1-1-1z"/>
    <path fill="#80828b" d="m150 170 1 1-1-1z"/>
    <path fill="#b8b9be" d="m232 170 1 1-1-1z"/>
    <path fill="#7c7e87" d="m288 170 1 1-1-1z"/>
    <path fill="#94959d" d="m303 170 1 1-1-1z"/>
    <path fill="#b7b8bd" d="m526 170 1 1-1-1z"/>
    <path fill="#c9cace" d="m654 170 1 1-1-1z"/>
    <path fill="#96989f" d="m715 170 1 1-1-1z"/>
    <path fill="#b0b1b6" d="m729 170 1 1-1-1z"/>
    <path fill="#92949c" d="m166 171 1 1-1-1z"/>
    <path fill="#c0c0c5" d="m248 171 1 1-1-1z"/>
    <path fill="#cecfd2" d="m509 171 1 1-1-1z"/>
    <path fill="#a8aab0" d="m544 171 1 1-1-1z"/>
    <path fill="#bcbcc1" d="m560 171 1 1-1-1z"/>
    <path fill="#636571" d="m655 171 1 1-1-1z"/>
    <path fill="#b0b1b6" d="m670 171 1 1-1-1z"/>
    <path fill="#a3a4ab" d="m115 172 1 1-1-1z"/>
    <path fill="#686a75" d="m131 172 1 1-1-1z"/>
    <path fill="#9fa0a7" d="m233 172 1 1-1-1z"/>
    <path fill="#6b6d78" d="m248 172 1 1-1-1z"/>
    <path fill="#9b9ca3" d="m287 172 1 1-1-1z"/>
    <path fill="#7a7c86" d="m302 172 1 1-1-1z"/>
    <path fill="#797b84" d="m509 172 1 1-1-1z"/>
    <path fill="#91939b" d="m525 172 1 1-1-1z"/>
    <path fill="#666974" d="m560 172 1 1-1-1z"/>
    <path fill="#c9cace" d="m655 172 1 1-1-1z"/>
    <path fill="#96989f" d="m714 172 1 1-1-1z"/>
    <path fill="#b0b1b6" d="m728 172 1 1-1-1z"/>
    <path fill="#bcbcc1" d="m131 173 1 1-1-1z"/>
    <path fill="#aaabb1" d="m151 173 1 1-1-1z"/>
    <path fill="#b4b5ba" d="m167 173 1 1-1-1z"/>
    <path fill="#81828c" d="m545 173 1 1-1-1z"/>
    <path fill="#636571" d="m656 173 1 1-1-1z"/>
    <path fill="#b0b1b6" d="m671 173 1 1-1-1z"/>
    <path fill="#c3c4c8" d="m114 174 1 1-1-1z"/>
    <path fill="#5e606c" d="m167 174 1 1-1-1z"/>
    <path fill="#858790" d="m234 174 1 1-1-1z"/>
    <path fill="#8d8f97" d="m249 174 1 1-1-1z"/>
    <path fill="#bbbcc1" d="m286 174 1 1-1-1z"/>
    <path fill="#60626e" d="m301 174 1 1-1-1z"/>
    <path fill="#999ba2" d="m508 174 1 1-1-1z"/>
    <path fill="#6d6f79" d="m524 174 1 1-1-1z"/>
    <path fill="#878991" d="m561 174 1 1-1-1z"/>
    <path fill="#c9cace" d="m656 174 1 1-1-1z"/>
    <path fill="#96989f" d="m713 174 1 1-1-1z"/>
    <path fill="#b0b1b6" d="m727 174 1 1-1-1z"/>
    <path fill="#6e707b" d="m114 175 1 1-1-1z"/>
    <path fill="#9798a0" d="m130 175 1 1-1-1z"/>
    <path fill="#81838c" d="m152 175 1 1-1-1z"/>
    <path fill="#646671" d="m286 175 1 1-1-1z"/>
    <path fill="#b9babf" d="m301 175 1 1-1-1z"/>
    <path fill="#c0c1c6" d="m524 175 1 1-1-1z"/>
    <path fill="#636571" d="m657 175 1 1-1-1z"/>
    <path fill="#b0b1b6" d="m672 175 1 1-1-1z"/>
    <path fill="#7e8089" d="m168 176 1 1-1-1z"/>
    <path fill="#6b6d78" d="m235 176 1 1-1-1z"/>
    <path fill="#b0b1b6" d="m250 176 1 1-1-1z"/>
    <path fill="#bbbcc1" d="m507 176 1 1-1-1z"/>
    <path fill="#aaabb1" d="m546 176 1 1-1-1z"/>
    <path fill="#a8a9af" d="m562 176 1 1-1-1z"/>
    <path fill="#c9cace" d="m657 176 1 1-1-1z"/>
    <path fill="#96989f" d="m712 176 1 1-1-1z"/>
    <path fill="#b0b1b6" d="m726 176 1 1-1-1z"/>
    <path fill="#909199" d="m113 177 1 1-1-1z"/>
    <path fill="#71747e" d="m129 177 1 1-1-1z"/>
    <path fill="#c4c5c9" d="m235 177 1 1-1-1z"/>
    <path fill="#84868e" d="m285 177 1 1-1-1z"/>
    <path fill="#9fa0a7" d="m300 177 1 1-1-1z"/>
    <path fill="#666873" d="m507 177 1 1-1-1z"/>
    <path fill="#9b9ca3" d="m523 177 1 1-1-1z"/>
    <path fill="#636571" d="m658 177 1 1-1-1z"/>
    <path fill="#b0b1b6" d="m673 177 1 1-1-1z"/>
    <path fill="#c5c6ca" d="m129 178 1 1-1-1z"/>
    <path fill="#acadb3" d="m153 178 1 1-1-1z"/>
    <path fill="#a0a1a8" d="m169 178 1 1-1-1z"/>
    <path fill="#82848d" d="m547 178 1 1-1-1z"/>
    <path fill="#c9cace" d="m563 178 1 1-1-1m95 0 1 1-1-1z"/>
    <path fill="#b0b1b6" d="m711 178 1 1-1-1m14 0 1 1-1-1z"/>
    <path fill="#b0b1b7" d="m112 179 1 1-1-1z"/>
    <path fill="#abacb2" d="m236 179 1 1-1-1z"/>
    <path fill="#7d7f88" d="m251 179 1 1-1-1z"/>
    <path fill="#a3a4ab" d="m284 179 1 1-1-1z"/>
    <path fill="#85868f" d="m299 179 1 1-1-1z"/>
    <path fill="#868891" d="m506 179 1 1-1-1z"/>
    <path fill="#757781" d="m522 179 1 1-1-1z"/>
    <path fill="#73757f" d="m563 179 1 1-1-1z"/>
    <path fill="#636571" d="m659 179 1 1-1-1z"/>
    <path fill="#b0b1b6" d="m674 179 1 1-1-1z"/>
    <path fill="#a0a1a8" d="m128 180 1 1-1-1z"/>
    <path fill="#84868e" d="m154 180 1 1-1-1z"/>
    <path fill="#c0c1c6" d="m170 180 1 1-1-1z"/>
    <path fill="#c9cace" d="m522 180 1 1-1-1m137 0 1 1-1-1z"/>
    <path fill="#b0b1b6" d="m710 180 1 1-1-1z"/>
    <path fill="#96989f" d="m724 180 1 1-1-1z"/>
    <path fill="#6a6c77" d="m170 181 1 1-1-1z"/>
    <path fill="#91939b" d="m237 181 1 1-1-1z"/>
    <path fill="#9fa0a7" d="m252 181 1 1-1-1z"/>
    <path fill="#c3c4c8" d="m283 181 1 1-1-1z"/>
    <path fill="#6b6d78" d="m298 181 1 1-1-1z"/>
    <path fill="#a7a8ae" d="m505 181 1 1-1-1z"/>
    <path fill="#acaeb3" d="m548 181 1 1-1-1z"/>
    <path fill="#94959d" d="m564 181 1 1-1-1z"/>
    <path fill="#636571" d="m660 181 1 1-1-1z"/>
    <path fill="#c9cace" d="m675 181 1 1-1-1z"/>
    <path fill="#7c7e87" d="m111 182 1 1-1-1z"/>
    <path fill="#7b7d86" d="m127 182 1 1-1-1z"/>
    <path fill="#6c6e79" d="m283 182 1 1-1-1z"/>
    <path fill="#c3c4c8" d="m298 182 1 1-1-1z"/>
    <path fill="#a4a6ac" d="m521 182 1 1-1-1z"/>
    <path fill="#c9cace" d="m660 182 1 1-1-1z"/>
    <path fill="#646671" d="m675 182 1 1-1-1z"/>
    <path fill="#b0b1b6" d="m709 182 1 1-1-1z"/>
    <path fill="#96989f" d="m723 182 1 1-1-1z"/>
    <path fill="#cecfd2" d="m127 183 1 1-1-1z"/>
    <path fill="#aeafb5" d="m155 183 1 1-1-1z"/>
    <path fill="#8c8d96" d="m171 183 1 1-1-1z"/>
    <path fill="#787a84" d="m238 183 1 1-1-1z"/>
    <path fill="#c1c2c6" d="m253 183 1 1-1-1z"/>
    <path fill="#c8c9cd" d="m504 183 1 1-1-1z"/>
    <path fill="#85868f" d="m549 183 1 1-1-1z"/>
    <path fill="#b5b6bb" d="m565 183 1 1-1-1z"/>
    <path fill="#636571" d="m661 183 1 1-1-1z"/>
    <path fill="#c9cace" d="m676 183 1 1-1-1z"/>
    <path fill="#9c9ea5" d="m110 184 1 1-1-1z"/>
    <path fill="#6c6e79" d="m253 184 1 1-1-1z"/>
    <path fill="#8c8d96" d="m282 184 1 1-1-1z"/>
    <path fill="#a9aab1" d="m297 184 1 1-1-1z"/>
    <path fill="#72747f" d="m504 184 1 1-1-1z"/>
    <path fill="#7f818a" d="m520 184 1 1-1-1z"/>
    <path fill="#5f626d" d="m565 184 1 1-1-1z"/>
    <path fill="#c9cace" d="m661 184 1 1-1-1z"/>
    <path fill="#646671" d="m676 184 1 1-1-1z"/>
    <path fill="#b0b1b6" d="m708 184 1 1-1-1z"/>
    <path fill="#96989f" d="m722 184 1 1-1-1z"/>
    <path fill="#a9aab1" d="m126 185 1 1-1-1z"/>
    <path fill="#868891" d="m156 185 1 1-1-1z"/>
    <path fill="#acaeb3" d="m172 185 1 1-1-1z"/>
    <path fill="#5e606c" d="m239 185 1 1-1-1z"/>
    <path fill="#5d5f6b" d="m550 185 1 1-1-1z"/>
    <path fill="#636571" d="m662 185 1 1-1-1z"/>
    <path fill="#c9cace" d="m677 185 1 1-1-1z"/>
    <path fill="#bebfc3" d="m109 186 1 1-1-1z"/>
    <path fill="#b7b8bd" d="m239 186 1 1-1-1z"/>
    <path fill="#8e9098" d="m254 186 1 1-1-1z"/>
    <path fill="#abacb2" d="m281 186 1 1-1-1z"/>
    <path fill="#909199" d="m296 186 1 1-1-1z"/>
    <path fill="#94959d" d="m503 186 1 1-1-1z"/>
    <path fill="#afb0b6" d="m550 186 1 1-1-1z"/>
    <path fill="#80828b" d="m566 186 1 1-1-1z"/>
    <path fill="#c9cace" d="m662 186 1 1-1-1z"/>
    <path fill="#646671" d="m677 186 1 1-1-1z"/>
    <path fill="#c9cace" d="m707 186 1 1-1-1z"/>
    <path fill="#96989f" d="m721 186 1 1-1-1z"/>
    <path fill="#696b76" d="m109 187 1 1-1-1z"/>
    <path fill="#84868e" d="m125 187 1 1-1-1z"/>
    <path fill="#5e606c" d="m157 187 1 1-1-1z"/>
    <path fill="#cdced1" d="m173 187 1 1-1-1z"/>
    <path fill="#adaeb4" d="m519 187 1 1-1-1z"/>
    <path fill="#636571" d="m663 187 1 1-1-1z"/>
    <path fill="#c9cace" d="m678 187 1 1-1-1z"/>
    <path fill="#646671" d="m707 187 1 1-1-1z"/>
    <path fill="#b0b1b6" d="m157 188 1 1-1-1z"/>
    <path fill="#787a84" d="m173 188 1 1-1-1z"/>
    <path fill="#9d9fa6" d="m240 188 1 1-1-1z"/>
    <path fill="#b0b1b7" d="m255 188 1 1-1-1z"/>
    <path fill="#cbcbcf" d="m280 188 1 1-1-1z"/>
    <path fill="#757781" d="m295 188 1 1-1-1z"/>
    <path fill="#b4b5bb" d="m502 188 1 1-1-1z"/>
    <path fill="#868891" d="m551 188 1 1-1-1z"/>
    <path fill="#a1a3a9" d="m567 188 1 1-1-1z"/>
    <path fill="#c9cace" d="m663 188 1 1-1-1z"/>
    <path fill="#646671" d="m678 188 1 1-1-1z"/>
    <path fill="#c9cace" d="m706 188 1 1-1-1z"/>
    <path fill="#96989f" d="m720 188 1 1-1-1z"/>
    <path fill="#898b94" d="m108 189 1 1-1-1z"/>
    <path fill="#5e616c" d="m124 189 1 1-1-1z"/>
    <path fill="#747680" d="m280 189 1 1-1-1z"/>
    <path fill="#cfcfd3" d="m295 189 1 1-1-1z"/>
    <path fill="#5f626d" d="m502 189 1 1-1-1z"/>
    <path fill="#888992" d="m518 189 1 1-1-1z"/>
    <path fill="#636571" d="m664 189 1 1-1-1z"/>
    <path fill="#c9cace" d="m679 189 1 1-1-1z"/>
    <path fill="#646671" d="m706 189 1 1-1-1z"/>
    <path fill="#b2b3b9" d="m124 190 1 1-1-1z"/>
    <path fill="#888992" d="m158 190 1 1-1-1z"/>
    <path fill="#989aa1" d="m174 190 1 1-1-1z"/>
    <path fill="#84868e" d="m241 190 1 1-1-1z"/>
    <path fill="#5e616c" d="m552 190 1 1-1-1z"/>
    <path fill="#c2c3c7" d="m568 190 1 1-1-1z"/>
    <path fill="#c9cace" d="m664 190 1 1-1-1z"/>
    <path fill="#646671" d="m679 190 1 1-1-1z"/>
    <path fill="#c9cace" d="m705 190 1 1-1-1z"/>
    <path fill="#96989f" d="m719 190 1 1-1-1z"/>
    <path fill="#aaabb1" d="m107 191 1 1-1-1z"/>
    <path fill="#7e8089" d="m256 191 1 1-1-1z"/>
    <path fill="#94959d" d="m279 191 1 1-1-1z"/>
    <path fill="#b4b5bb" d="m294 191 1 1-1-1z"/>
    <path fill="#80828b" d="m501 191 1 1-1-1z"/>
    <path fill="#636571" d="m517 191 1 1-1-1z"/>
    <path fill="#b0b1b7" d="m552 191 1 1-1-1z"/>
    <path fill="#6c6e79" d="m568 191 1 1-1-1z"/>
    <path fill="#636571" d="m665 191 1 1-1-1z"/>
    <path fill="#c9cace" d="m680 191 1 1-1-1z"/>
    <path fill="#646671" d="m705 191 1 1-1-1z"/>
    <path fill="#8d8f97" d="m123 192 1 1-1-1z"/>
    <path fill="#60626e" d="m159 192 1 1-1-1z"/>
    <path fill="#b9babf" d="m175 192 1 1-1-1z"/>
    <path fill="#6a6c77" d="m242 192 1 1-1-1z"/>
    <path fill="#b7b8bd" d="m517 192 1 1-1-1z"/>
    <path fill="#c9cace" d="m665 192 1 1-1-1z"/>
    <path fill="#646671" d="m680 192 1 1-1-1z"/>
    <path fill="#c9cace" d="m704 192 1 1-1-1z"/>
    <path fill="#7d7f88" d="m718 192 1 1-1-1z"/>
    <path fill="#cbccd0" d="m106 193 1 1-1-1z"/>
    <path fill="#b2b3b9" d="m159 193 1 1-1-1z"/>
    <path fill="#646671" d="m175 193 1 1-1-1z"/>
    <path fill="#c3c4c8" d="m242 193 1 1-1-1z"/>
    <path fill="#a0a2a9" d="m257 193 1 1-1-1z"/>
    <path fill="#b3b4b9" d="m278 193 1 1-1-1z"/>
    <path fill="#9a9ca3" d="m293 193 1 1-1-1z"/>
    <path fill="#a1a3a9" d="m500 193 1 1-1-1z"/>
    <path fill="#898a93" d="m553 193 1 1-1-1z"/>
    <path fill="#8d8f97" d="m569 193 1 1-1-1z"/>
    <path fill="#636571" d="m666 193 1 1-1-1z"/>
    <path fill="#c9cace" d="m681 193 1 1-1-1z"/>
    <path fill="#646671" d="m704 193 1 1-1-1z"/>
    <path fill="#757781" d="m106 194 1 1-1-1z"/>
    <path fill="#686a75" d="m122 194 1 1-1-1z"/>
    <path fill="#5d5f6b" d="m278 194 1 1-1-1z"/>
    <path fill="#91939b" d="m516 194 1 1-1-1z"/>
    <path fill="#c9cace" d="m666 194 1 1-1-1z"/>
    <path fill="#646671" d="m681 194 1 1-1-1z"/>
    <path fill="#7d7f88" d="m717 194 1 1-1-1z"/>
    <path fill="#bcbcc1" d="m122 195 1 1-1-1z"/>
    <path fill="#8a8c94" d="m160 195 1 1-1-1z"/>
    <path fill="#85868f" d="m176 195 1 1-1-1z"/>
    <path fill="#a9aab1" d="m243 195 1 1-1-1z"/>
    <path fill="#c3c4c8" d="m258 195 1 1-1-1z"/>
    <path fill="#81828c" d="m292 195 1 1-1-1z"/>
    <path fill="#c2c3c7" d="m499 195 1 1-1-1z"/>
    <path fill="#61636f" d="m554 195 1 1-1-1z"/>
    <path fill="#aeafb5" d="m570 195 1 1-1-1z"/>
    <path fill="#636571" d="m667 195 1 1-1-1z"/>
    <path fill="#c9cace" d="m682 195 1 1-1-1z"/>
    <path fill="#7d7f88" d="m703 195 1 1-1-1z"/>
    <path fill="#9798a0" d="m105 196 1 1-1-1z"/>
    <path fill="#6e707a" d="m258 196 1 1-1-1z"/>
    <path fill="#7c7e87" d="m277 196 1 1-1-1z"/>
    <path fill="#6d6f79" d="m499 196 1 1-1-1z"/>
    <path fill="#6c6e79" d="m515 196 1 1-1-1z"/>
    <path fill="#b3b4b9" d="m554 196 1 1-1-1z"/>
    <path fill="#c9cace" d="m667 196 1 1-1-1z"/>
    <path fill="#646671" d="m682 196 1 1-1-1z"/>
    <path fill="#7d7f88" d="m716 196 1 1-1-1z"/>
    <path fill="#96989f" d="m121 197 1 1-1-1z"/>
    <path fill="#626570" d="m161 197 1 1-1-1z"/>
    <path fill="#a5a7ad" d="m177 197 1 1-1-1z"/>
    <path fill="#909199" d="m244 197 1 1-1-1z"/>
    <path fill="#666974" d="m291 197 1 1-1-1z"/>
    <path fill="#c0c0c5" d="m515 197 1 1-1-1z"/>
    <path fill="#cfcfd3" d="m571 197 1 1-1-1z"/>
    <path fill="#636571" d="m668 197 1 1-1-1z"/>
    <path fill="#c9cace" d="m683 197 1 1-1-1z"/>
    <path fill="#7d7f88" d="m702 197 1 1-1-1z"/>
    <path fill="#b8b9be" d="m104 198 1 1-1-1z"/>
    <path fill="#b4b5bb" d="m161 198 1 1-1-1z"/>
    <path fill="#909199" d="m259 198 1 1-1-1z"/>
    <path fill="#9c9da4" d="m276 198 1 1-1-1z"/>
    <path fill="#bfc0c4" d="m291 198 1 1-1-1z"/>
    <path fill="#8d8f97" d="m498 198 1 1-1-1z"/>
    <path fill="#8b8d95" d="m555 198 1 1-1-1z"/>
    <path fill="#797b85" d="m571 198 1 1-1-1z"/>
    <path fill="#c9cace" d="m668 198 1 1-1-1z"/>
    <path fill="#646671" d="m683 198 1 1-1-1z"/>
    <path fill="#7d7f88" d="m715 198 1 1-1-1z"/>
    <path fill="#626570" d="m104 199 1 1-1-1z"/>
    <path fill="#71747e" d="m120 199 1 1-1-1z"/>
    <path fill="#c6c7cb" d="m178 199 1 1-1-1z"/>
    <path fill="#767882" d="m245 199 1 1-1-1z"/>
    <path fill="#9b9ca3" d="m514 199 1 1-1-1z"/>
    <path fill="#636571" d="m669 199 1 1-1-1z"/>
    <path fill="#c9cace" d="m684 199 1 1-1-1z"/>
    <path fill="#7d7f88" d="m701 199 1 1-1-1z"/>
    <path fill="#c4c5c9" d="m120 200 1 1-1-1z"/>
    <path fill="#8c8d96" d="m162 200 1 1-1-1z"/>
    <path fill="#71737d" d="m178 200 1 1-1-1z"/>
    <path fill="#cfd0d3" d="m245 200 1 1-1-1z"/>
    <path fill="#b2b3b9" d="m260 200 1 1-1-1z"/>
    <path fill="#bbbcc1" d="m275 200 1 1-1-1z"/>
    <path fill="#a5a7ad" d="m290 200 1 1-1-1z"/>
    <path fill="#afb0b6" d="m497 200 1 1-1-1z"/>
    <path fill="#626570" d="m556 200 1 1-1-1z"/>
    <path fill="#9a9ca3" d="m572 200 1 1-1-1z"/>
    <path fill="#c9cace" d="m669 200 1 1-1-1z"/>
    <path fill="#646671" d="m684 200 1 1-1-1z"/>
    <path fill="#7d7f88" d="m714 200 1 1-1-1z"/>
    <path fill="#83858e" d="m103 201 1 1-1-1z"/>
    <path fill="#5d5f6b" d="m260 201 1 1-1-1z"/>
    <path fill="#656772" d="m275 201 1 1-1-1z"/>
    <path fill="#757781" d="m513 201 1 1-1-1z"/>
    <path fill="#b4b5bb" d="m556 201 1 1-1-1z"/>
    <path fill="#636571" d="m670 201 1 1-1-1z"/>
    <path fill="#c9cace" d="m685 201 1 1-1-1z"/>
    <path fill="#7d7f88" d="m700 201 1 1-1-1z"/>
    <path fill="#a0a1a8" d="m119 202 1 1-1-1z"/>
    <path fill="#646671" d="m163 202 1 1-1-1z"/>
    <path fill="#91939b" d="m179 202 1 1-1-1z"/>
    <path fill="#b5b6bb" d="m246 202 1 1-1-1z"/>
    <path fill="#8b8d95" d="m289 202 1 1-1-1z"/>
    <path fill="#cfd0d3" d="m496 202 1 1-1-1z"/>
    <path fill="#c9cace" d="m513 202 1 1-1-1z"/>
    <path fill="#bbbcc1" d="m573 202 1 1-1-1z"/>
    <path fill="#c9cace" d="m670 202 1 1-1-1z"/>
    <path fill="#646671" d="m685 202 1 1-1-1z"/>
    <path fill="#7d7f88" d="m713 202 1 1-1-1z"/>
    <path fill="#a4a6ac" d="m102 203 1 1-1-1z"/>
    <path fill="#b6b7bc" d="m163 203 1 1-1-1z"/>
    <path fill="#7f818a" d="m261 203 1 1-1-1z"/>
    <path fill="#84868e" d="m274 203 1 1-1-1z"/>
    <path fill="#7a7c86" d="m496 203 1 1-1-1z"/>
    <path fill="#8d8e96" d="m557 203 1 1-1-1z"/>
    <path fill="#666873" d="m573 203 1 1-1-1z"/>
    <path fill="#636571" d="m671 203 1 1-1-1z"/>
    <path fill="#c9cace" d="m686 203 1 1-1-1z"/>
    <path fill="#96989f" d="m699 203 1 1-1-1z"/>
    <path fill="#7a7c86" d="m118 204 1 1-1-1z"/>
    <path fill="#b2b3b9" d="m180 204 1 1-1-1z"/>
    <path fill="#9c9da4" d="m247 204 1 1-1-1z"/>
    <path fill="#71737d" d="m288 204 1 1-1-1z"/>
    <path fill="#a4a5ab" d="m512 204 1 1-1-1z"/>
    <path fill="#c9cace" d="m671 204 1 1-1-1z"/>
    <path fill="#646671" d="m686 204 1 1-1-1z"/>
    <path fill="#7d7f88" d="m712 204 1 1-1-1z"/>
    <path fill="#c5c6ca" d="m101 205 1 1-1-1z"/>
    <path fill="#cecfd2" d="m118 205 1 1-1-1z"/>
    <path fill="#8e9098" d="m164 205 1 1-1-1z"/>
    <path fill="#5d5f6b" d="m180 205 1 1-1-1z"/>
    <path fill="#a1a3a9" d="m262 205 1 1-1-1z"/>
    <path fill="#a3a4ab" d="m273 205 1 1-1-1z"/>
    <path fill="#cacbce" d="m288 205 1 1-1-1z"/>
    <path fill="#9b9ca3" d="m495 205 1 1-1-1z"/>
    <path fill="#656772" d="m558 205 1 1-1-1z"/>
    <path fill="#868891" d="m574 205 1 1-1-1z"/>
    <path fill="#636571" d="m672 205 1 1-1-1z"/>
    <path fill="#c9cace" d="m687 205 1 1-1-1z"/>
    <path fill="#96989f" d="m698 205 1 1-1-1z"/>
    <path fill="#70727c" d="m101 206 1 1-1-1z"/>
    <path fill="#82848d" d="m248 206 1 1-1-1z"/>
    <path fill="#7f818a" d="m511 206 1 1-1-1z"/>
    <path fill="#b7b8bd" d="m558 206 1 1-1-1z"/>
    <path fill="#c9cace" d="m672 206 1 1-1-1z"/>
    <path fill="#646671" d="m687 206 1 1-1-1z"/>
    <path fill="#636571" d="m711 206 1 1-1-1z"/>
    <path fill="#a8aab0" d="m117 207 1 1-1-1z"/>
    <path fill="#666974" d="m165 207 1 1-1-1z"/>
    <path fill="#7d7f89" d="m181 207 1 1-1-1z"/>
    <path fill="#c3c4c8" d="m263 207 1 1-1-1m9 0 1 1-1-1z"/>
    <path fill="#b0b1b6" d="m287 207 1 1-1-1z"/>
    <path fill="#bcbdc2" d="m494 207 1 1-1-1z"/>
    <path fill="#a7a8ae" d="m575 207 1 1-1-1z"/>
    <path fill="#636571" d="m673 207 1 1-1-1z"/>
    <path fill="#c9cace" d="m688 207 1 1-1-1z"/>
    <path fill="#96989f" d="m697 207 1 1-1-1z"/>
    <path fill="#c9cace" d="m711 207 1 1-1-1z"/>
    <path fill="#91929a" d="m100 208 1 1-1-1z"/>
    <path fill="#b8b9be" d="m165 208 1 1-1-1z"/>
    <path fill="#696b76" d="m249 208 1 1-1-1z"/>
    <path fill="#6f717c" d="m263 208 1 1-1-1z"/>
    <path fill="#6d6f79" d="m272 208 1 1-1-1z"/>
    <path fill="#666974" d="m494 208 1 1-1-1z"/>
    <path fill="#8f9199" d="m559 208 1 1-1-1z"/>
    <path fill="#c9cace" d="m673 208 1 1-1-1z"/>
    <path fill="#646671" d="m688 208 1 1-1-1z"/>
    <path fill="#636571" d="m710 208 1 1-1-1z"/>
    <path fill="#84868e" d="m116 209 1 1-1-1z"/>
    <path fill="#9e9fa6" d="m182 209 1 1-1-1z"/>
    <path fill="#c1c2c6" d="m249 209 1 1-1-1z"/>
    <path fill="#96989f" d="m286 209 1 1-1-1z"/>
    <path fill="#adaeb4" d="m510 209 1 1-1-1z"/>
    <path fill="#c7c8cc" d="m576 209 1 1-1-1z"/>
    <path fill="#636571" d="m674 209 1 1-1-1z"/>
    <path fill="#c9cace" d="m689 209 1 1-1-1z"/>
    <path fill="#96989f" d="m696 209 1 1-1-1z"/>
    <path fill="#c9cace" d="m710 209 1 1-1-1z"/>
    <path fill="#b2b3b9" d="m99 210 1 1-1-1z"/>
    <path fill="#91929a" d="m166 210 1 1-1-1z"/>
    <path fill="#91939b" d="m264 210 1 1-1-1z"/>
    <path fill="#8c8d96" d="m271 210 1 1-1-1z"/>
    <path fill="#888992" d="m493 210 1 1-1-1z"/>
    <path fill="#676974" d="m560 210 1 1-1-1z"/>
    <path fill="#72747f" d="m576 210 1 1-1-1z"/>
    <path fill="#c9cace" d="m674 210 1 1-1-1z"/>
    <path fill="#646671" d="m689 210 1 1-1-1z"/>
    <path fill="#636571" d="m709 210 1 1-1-1z"/>
    <path fill="#5e616c" d="m115 211 1 1-1-1z"/>
    <path fill="#c0c0c5" d="m183 211 1 1-1-1z"/>
    <path fill="#a8a9af" d="m250 211 1 1-1-1z"/>
    <path fill="#7c7e87" d="m285 211 1 1-1-1z"/>
    <path fill="#888992" d="m509 211 1 1-1-1z"/>
    <path fill="#b9babf" d="m560 211 1 1-1-1z"/>
    <path fill="#636571" d="m675 211 1 1-1-1z"/>
    <path fill="#c9cace" d="m690 211 1 1-1-1z"/>
    <path fill="#a3a4ab" d="m695 211 1 1-1-1z"/>
    <path fill="#c9cace" d="m709 211 1 1-1-1z"/>
    <path fill="#b2b3b9" d="m115 212 1 1-1-1z"/>
    <path fill="#686a75" d="m167 212 1 1-1-1z"/>
    <path fill="#6a6c77" d="m183 212 1 1-1-1z"/>
    <path fill="#b4b5ba" d="m265 212 1 1-1-1z"/>
    <path fill="#abacb2" d="m270 212 1 1-1-1z"/>
    <path fill="#a8aab0" d="m492 212 1 1-1-1z"/>
    <path fill="#93949c" d="m577 212 1 1-1-1z"/>
    <path fill="#c9cace" d="m675 212 1 1-1-1z"/>
    <path fill="#646671" d="m690 212 1 1-1-1z"/>
    <path fill="#636571" d="m708 212 1 1-1-1z"/>
    <path fill="#7d7f89" d="m98 213 1 1-1-1z"/>
    <path fill="#babbc0" d="m167 213 1 1-1-1z"/>
    <path fill="#8e9098" d="m251 213 1 1-1-1z"/>
    <path fill="#5e616c" d="m265 213 1 1-1-1z"/>
    <path fill="#62646f" d="m284 213 1 1-1-1z"/>
    <path fill="#626570" d="m508 213 1 1-1-1z"/>
    <path fill="#91929a" d="m561 213 1 1-1-1z"/>
    <path fill="#636571" d="m676 213 1 1-1-1z"/>
    <path fill="#c9cace" d="m691 213 1 1-1-1z"/>
    <path fill="#b0b1b6" d="m694 213 1 1-1-1z"/>
    <path fill="#c9cace" d="m708 213 1 1-1-1z"/>
    <path fill="#8d8e96" d="m114 214 1 1-1-1z"/>
    <path fill="#8a8c94" d="m184 214 1 1-1-1z"/>
    <path fill="#cbcbcf" d="m269 214 1 1-1-1z"/>
    <path fill="#bbbcc1" d="m284 214 1 1-1-1z"/>
    <path fill="#c9cace" d="m491 214 1 1-1-1z"/>
    <path fill="#b6b7bc" d="m508 214 1 1-1-1z"/>
    <path fill="#b4b5ba" d="m578 214 1 1-1-1z"/>
    <path fill="#c9cace" d="m676 214 1 1-1-1z"/>
    <path fill="#646671" d="m691 214 1 1-1-1z"/>
    <path fill="#636571" d="m707 214 1 1-1-1z"/>
    <path fill="#9e9fa6" d="m97 215 1 1-1-1z"/>
    <path fill="#92949c" d="m168 215 1 1-1-1z"/>
    <path fill="#757781" d="m252 215 1 1-1-1z"/>
    <path fill="#81828c" d="m266 215 1 1-1-1z"/>
    <path fill="#757781" d="m269 215 1 1-1-1z"/>
    <path fill="#747680" d="m491 215 1 1-1-1z"/>
    <path fill="#696b76" d="m562 215 1 1-1-1z"/>
    <path fill="#5e616c" d="m578 215 1 1-1-1z"/>
    <path fill="#636571" d="m677 215 1 1-1-1z"/>
    <path fill="#b0b1b6" d="m692.667 215.333.333.334h.333l-.333-.334h-.333z"/>
    <path fill="#c9cace" d="m707 215 1 1-1-1z"/>
    <path fill="#686a75" d="m113 216 1 1-1-1z"/>
    <path fill="#acadb3" d="m185 216 1 1-1-1z"/>
    <path fill="#cecfd2" d="m252 216 1 1-1-1z"/>
    <path fill="#a0a2a9" d="m283 216 1 1-1-1z"/>
    <path fill="#91939b" d="m507 216 1 1-1-1z"/>
    <path fill="#bbbcc1" d="m562 216 1 1-1-1z"/>
    <path fill="#c9cace" d="m677 216 1 1-1-1z"/>
    <path fill="#4a4d5a" d="m692.667 216.333.333.334h.333l-.333-.334h-.333z"/>
    <path fill="#636571" d="m706 216 1 1-1-1z"/>
    <path fill="#c0c0c5" d="m96 217 1 1-1-1z"/>
    <path fill="#bbbcc1" d="m113 217 1 1-1-1z"/>
    <path fill="#6a6c77" d="m169 217 1 1-1-1z"/>
    <path fill="#94959d" d="m267.667 217.333.333.334h.333l-.333-.334h-.333z"/>
    <path fill="#95979e" d="m490 217 1 1-1-1z"/>
    <path fill="#7f818a" d="m579 217 1 1-1-1z"/>
    <path fill="#636571" d="m678 217 1 1-1-1z"/>
    <path fill="#c9cace" d="m706 217 1 1-1-1z"/>
    <path fill="#6a6c77" d="m96 218 1 1-1-1z"/>
    <path fill="#bcbdc2" d="m169 218 1 1-1-1z"/>
    <path fill="#cccdd0" d="m186 218 1 1-1-1z"/>
    <path fill="#b4b5bb" d="m253 218 1 1-1-1z"/>
    <path fill="#888992" d="m282 218 1 1-1-1z"/>
    <path fill="#6c6e79" d="m506 218 1 1-1-1z"/>
    <path fill="#93949c" d="m563 218 1 1-1-1z"/>
    <path fill="#c9cace" d="m678 218 1 1-1-1z"/>
    <path fill="#96989f" d="m112 219 1 1-1-1z"/>
    <path fill="#767882" d="m186 219 1 1-1-1z"/>
    <path fill="#b6b7bc" d="m489 219 1 1-1-1z"/>
    <path fill="#c0c0c5" d="m506 219 1 1-1-1z"/>
    <path fill="#a0a1a8" d="m580 219 1 1-1-1z"/>
    <path fill="#636571" d="m679 219 1 1-1-1z"/>
    <path fill="#b0b1b6" d="m705 219 1 1-1-1z"/>
    <path fill="#8b8d95" d="m95 220 1 1-1-1z"/>
    <path fill="#95969e" d="m170 220 1 1-1-1z"/>
    <path fill="#9a9ca3" d="m254 220 1 1-1-1z"/>
    <path fill="#6d6f79" d="m281 220 1 1-1-1z"/>
    <path fill="#61636f" d="m489 220 1 1-1-1z"/>
    <path fill="#6b6d78" d="m564 220 1 1-1-1z"/>
    <path fill="#c9cace" d="m679 220 1 1-1-1z"/>
    <path fill="#71737d" d="m111 221 1 1-1-1z"/>
    <path fill="#9899a1" d="m187 221 1 1-1-1z"/>
    <path fill="#c5c6ca" d="m281 221 1 1-1-1z"/>
    <path fill="#9a9ca3" d="m505 221 1 1-1-1z"/>
    <path fill="#bdbec3" d="m564 221 1 1-1-1z"/>
    <path fill="#c1c2c6" d="m581 221 1 1-1-1z"/>
    <path fill="#636571" d="m680 221 1 1-1-1z"/>
    <path fill="#b0b1b6" d="m704 221 1 1-1-1z"/>
    <path fill="#acadb3" d="m94 222 1 1-1-1z"/>
    <path fill="#c4c5c9" d="m111 222 1 1-1-1z"/>
    <path fill="#6d6f79" d="m171 222 1 1-1-1z"/>
    <path fill="#81828c" d="m255 222 1 1-1-1z"/>
    <path fill="#81838c" d="m488 222 1 1-1-1z"/>
    <path fill="#6b6d78" d="m581 222 1 1-1-1z"/>
    <path fill="#c9cace" d="m680 222 1 1-1-1z"/>
    <path fill="#bfc0c4" d="m171 223 1 1-1-1z"/>
    <path fill="#b8b9be" d="m188 223 1 1-1-1z"/>
    <path fill="#acadb3" d="m280 223 1 1-1-1z"/>
    <path fill="#757781" d="m504 223 1 1-1-1z"/>
    <path fill="#95979e" d="m565 223 1 1-1-1z"/>
    <path fill="#636571" d="m681 223 1 1-1-1z"/>
    <path fill="#b0b1b6" d="m703 223 1 1-1-1z"/>
    <path fill="#cccdd0" d="m93 224 1 1-1-1z"/>
    <path fill="#9fa0a7" d="m110 224 1 1-1-1z"/>
    <path fill="#626570" d="m188 224 1 1-1-1z"/>
    <path fill="#676974" d="m256 224 1 1-1-1z"/>
    <path fill="#a2a3aa" d="m487 224 1 1-1-1z"/>
    <path fill="#c8c9cd" d="m504 224 1 1-1-1z"/>
    <path fill="#8c8d96" d="m582 224 1 1-1-1z"/>
    <path fill="#c9cace" d="m681 224 1 1-1-1z"/>
    <path fill="#777983" d="m93 225 1 1-1-1z"/>
    <path fill="#96989f" d="m172 225 1 1-1-1z"/>
    <path fill="#c0c1c6" d="m256 225 1 1-1-1z"/>
    <path fill="#91939b" d="m279 225 1 1-1-1z"/>
    <path fill="#7c7e87" d="M440.667 225.333v.334h.666l-.333-.334h-.333z"/>
    <path fill="#b4b5bb" d="m442 225 1 1-1-1z"/>
    <path fill="#6d6f79" d="m566 225 1 1-1-1z"/>
    <path fill="#636571" d="m682 225 1 1-1-1z"/>
    <path fill="#b0b1b6" d="m702 225 1 1-1-1z"/>
    <path fill="#7a7c86" d="m109 226 1 1-1-1z"/>
    <path fill="#84868e" d="m189 226 1 1-1-1z"/>
    <path fill="#5e616c" d="m443 226 1 1-1-1z"/>
    <path fill="#c3c4c8" d="m486 226 1 1-1-1z"/>
    <path fill="#a4a5ab" d="m503 226 1 1-1-1z"/>
    <path fill="#bfc0c4" d="m566 226 1 1-1-1z"/>
    <path fill="#adaeb4" d="m583 226 1 1-1-1z"/>
    <path fill="#c9cace" d="m682 226 1 1-1-1z"/>
    <path fill="#989aa1" d="m92 227 1 1-1-1z"/>
    <path fill="#cdced1" d="m109 227 1 1-1-1z"/>
    <path fill="#6e707b" d="m173 227 1 1-1-1z"/>
    <path fill="#a6a7ae" d="m257 227 1 1-1-1z"/>
    <path fill="#777983" d="m278 227 1 1-1-1z"/>
    <path fill="#6e707b" d="m486 227 1 1-1-1z"/>
    <path fill="#636571" d="m683 227 1 1-1-1z"/>
    <path fill="#b0b1b6" d="m701 227 1 1-1-1z"/>
    <path fill="#c0c1c6" d="m173 228 1 1-1-1z"/>
    <path fill="#a4a6ac" d="m190 228 1 1-1-1z"/>
    <path fill="#5f626d" d="m445 228 1 1-1-1z"/>
    <path fill="#7e8089" d="m502 228 1 1-1-1z"/>
    <path fill="#9798a0" d="m567 228 1 1-1-1z"/>
    <path fill="#cecfd2" d="m584 228 1 1-1-1z"/>
    <path fill="#c9cace" d="m683 228 1 1-1-1z"/>
    <path fill="#c0c1c6" d="m91 229 1 1-1-1z"/>
    <path fill="#a9aab1" d="m108 229 1 1-1-1z"/>
    <path fill="#8d8e96" d="m258 229 1 1-1-1z"/>
    <path fill="#5d5f6b" d="m277 229 1 1-1-1z"/>
    <path fill="#b7b8bd" d="m446 229 1 1-1-1z"/>
    <path fill="#9798a0" d="m485 229 1 1-1-1z"/>
    <path fill="#7b7d86" d="m584 229 1 1-1-1z"/>
    <path fill="#636571" d="m684 229 1 1-1-1z"/>
    <path fill="#b0b1b6" d="m700 229 1 1-1-1z"/>
    <path fill="#81828c" d="m91 230 1 1-1-1z"/>
    <path fill="#989aa1" d="m174 230 1 1-1-1z"/>
    <path fill="#b6b7bc" d="m277 230 1 1-1-1z"/>
    <path fill="#6d6f79" d="m446 230 1 1-1-1z"/>
    <path fill="#6f717c" d="m568 230 1 1-1-1z"/>
    <path fill="#c9cace" d="m684 230 1 1-1-1z"/>
    <path fill="#84868e" d="m107 231 1 1-1-1z"/>
    <path fill="#8f9199" d="M191 231v4l.722-.778v-.5l.167-.722-.167-1.222L191 231z"/>
    <path fill="#73757f" d="m259 231 1 1-1-1z"/>
    <path fill="#adaeb4" d="m501 231 1 1-1-1z"/>
    <path fill="#c2c3c7" d="m568 231 1 1-1-1z"/>
    <path fill="#b8b9be" d="M585 231v4l.722-.778.167-1.222-.167-.722v-.5L585 231z"/>
    <path fill="#636571" d="m685 231 1 1-1-1z"/>
    <path fill="#b0b1b6" d="m699 231 1 1-1-1z"/>
    <path fill="#71747e" d="m175 232 1 1-1-1z"/>
    <path fill="#cccdd0" d="m259 232 1 1-1-1z"/>
    <path fill="#9c9da4" d="m276 232 1 1-1-1z"/>
    <path fill="#e3e3e5" d="M484.333 232.667v.666h.334v-.666h-.334z"/>
    <path fill="#5e616c" d="m106 233 1 1-1-1z"/>
    <path fill="#c3c4c8" d="m175 233 1 1-1-1z"/>
    <path fill="#888992" d="m500 233 1 1-1-1z"/>
    <path fill="#999ba2" d="m569 233 1 1-1-1z"/>
    <path fill="#a3a4ab" d="m686 233 1 1-1-1z"/>
    <path fill="#b3b4b9" d="m106 234 1 1-1-1z"/>
    <path fill="#b2b3b9" d="m260 234 1 1-1-1z"/>
    <path fill="#82848d" d="m275 234 1 1-1-1z"/>
    <path fill="#b0b1b6" d="m687 234 1 1-1-1z"/>
    <path fill="#636571" d="m750 234 1 1-1-1z"/>
    <path fill="#8b8d95" d="m91 235 1 1-1-1z"/>
    <path fill="#9c9da4" d="m176 235 1 1-1-1z"/>
    <path fill="#8b8d95" d="m446 235 1 1-1-1z"/>
    <path fill="#62646f" d="m485 235 1 1-1-1z"/>
    <path fill="#636571" d="m499 235 1 1-1-1z"/>
    <path fill="#72747f" d="m570 235 1 1-1-1z"/>
    <path fill="#898b94" d="m689 235 1 1-1-1z"/>
    <path fill="#70727c" d="m694 235 1 1-1-1z"/>
    <path fill="#b0b1b6" d="m695 235 1 1-1-1z"/>
    <path fill="#a3a4ab" d="m750 235 1 1-1-1z"/>
    <path fill="#999ba2" d="m105 236 1 1-1-1z"/>
    <path fill="#60626e" d="m190 236 1 1-1-1z"/>
    <path fill="#b2b3b9" d="m261 236 1 1-1-1z"/>
    <path fill="#7d7f89" d="m274 236 1 1-1-1z"/>
    <path fill="#84868e" d="m370 236 1 1-1-1z"/>
    <path fill="#bbbcc1" d="m485 236 1 1-1-1z"/>
    <path fill="#c3c4c8" d="m499 236 1 1-1-1z"/>
    <path fill="#cbccd0" d="m570 236 1 1-1-1z"/>
    <path fill="#8a8c94" d="m584 236 1 1-1-1z"/>
    <path fill="#b0b1b6" d="m634 236 1 1-1-1m14 0 1 1-1-1z"/>
    <path fill="#636571" d="m736 236 1 1-1-1z"/>
    <path fill="#9c9ea5" d="m92 237 1 1-1-1z"/>
    <path fill="#676974" d="m104 237 1 1-1-1z"/>
    <path fill="#a2a3aa" d="m177 237 1 1-1-1z"/>
    <path fill="#5e606c" d="m262 237 1 1-1-1z"/>
    <path fill="#abacb2" d="m445 237 1 1-1-1z"/>
    <path fill="#73757f" d="m486 237 1 1-1-1z"/>
    <path fill="#898b94" d="m498 237 1 1-1-1z"/>
    <path fill="#797b84" d="m571 237 1 1-1-1z"/>
    <path fill="#70727c" d="m635 237 1 1-1-1z"/>
    <path fill="#636571" d="m647 237 1 1-1-1z"/>
    <path fill="#bcbdc2" d="m749 237 1 1-1-1z"/>
    <path fill="#888992" d="m93 238 1 1-1-1z"/>
    <path fill="#9b9ca3" d="m178 238 1 1-1-1z"/>
    <path fill="#9798a0" d="m444 238 1 1-1-1z"/>
    <path fill="#666974" d="m487 238 1 1-1-1z"/>
    <path fill="#747680" d="m497 238 1 1-1-1z"/>
    <path fill="#797b84" d="m572 238 1 1-1-1z"/>
    <path fill="#5f626d" d="m582 238 1 1-1-1z"/>
    <path fill="#636571" d="m636 238 1 1-1-1z"/>
    <path fill="#b0b1b6" d="m748 238 1 1-1-1z"/>
    <path fill="#b6b7bc" d="m94 239 1 1-1-1z"/>
    <path fill="#a8aab0" d="m102 239 1 1-1-1z"/>
    <path fill="#cccdd0" d="m179 239 1 1-1-1z"/>
    <path fill="#61636f" d="m180 239 1 1-1-1z"/>
    <path fill="#7f818a" d="m187 239 1 1-1-1z"/>
    <path fill="#8c8d96" d="m264 239 1 1-1-1z"/>
    <path fill="#73757f" d="m271 239 1 1-1-1z"/>
    <path fill="#7c7e87" d="m373 239 1 1-1-1z"/>
    <path fill="#c3c4c8" d="m443 239 1 1-1-1z"/>
    <path fill="#989aa1" d="m488 239 1 1-1-1z"/>
    <path fill="#bbbcc1" d="m496 239 1 1-1-1z"/>
    <path fill="#b6b7bc" d="m573 239 1 1-1-1z"/>
    <path fill="#9899a1" d="m581 239 1 1-1-1z"/>
    <path fill="#96989f" d="m637 239 1 1-1-1m8 0 1 1-1-1z"/>
    <path fill="#70727c" d="m739 239 1 1-1-1z"/>
    <path fill="#636571" d="m746 239 1 1-1-1z"/>
    <path fill="#bdbec3" d="m96.667 240.333.333.334h.333l-.333-.334h-.333z"/>
    <path fill="#9798a0" d="m98 240 .722.722.528.028 1.75.25-.722-.722-.528-.028L98 240z"/>
    <path fill="#96989f" d="m182 240 .722.722.528.028 1.75.25-.722-.722-.528-.028L182 240z"/>
    <path fill="#a4a5ab" d="m266 240 .778.722.472.028.806.194L270 241l-.778-.722-.472-.028-.806-.194L266 240z"/>
    <path fill="#96989f" d="m375 240 .778.722.528.028.805.194.917.028.972.028h61l-.778-.722-.528-.028-.805-.194-.917-.028L436 240h-61z"/>
    <path fill="#e3e3e5" d="M440.667 240.333v.334h.666l-.333-.334h-.333z"/>
    <path fill="#b4b5ba" d="m490.667 240.333.333.334h.333l-.333-.334h-.333z"/>
    <path fill="#9a9ca3" d="M492.667 240.333v.334h.666l-.333-.334h-.333z"/>
    <path fill="#c8c9cd" d="m494 240 1 1-1-1z"/>
    <path fill="#999ba2" d="m575 240 .778.722.472.028.806.194L579 241l-.778-.722-.472-.028-.806-.194L575 240z"/>
    <path fill="#96989f" d="m639 240 .778.722.528.028.75.194.916.028L644 241l-.778-.722-.528-.028-.75-.194-.916-.028L639 240m102 0 .778.722.472.028.806.194L745 241l-.778-.722-.472-.028-.806-.194L741 240z"/>
</svg>
