<svg xmlns="http://www.w3.org/2000/svg" version="1.1" xmlns:xlink="http://www.w3.org/1999/xlink" xmlns:svgjs="http://svgjs.com/svgjs" width="1440" height="560" preserveAspectRatio="none" viewBox="0 0 1440 560"><g mask="url(&quot;#SvgjsMask1041&quot;)" fill="none"><rect width="1440" height="560" x="0" y="0" fill="rgba(22, 8, 115, 1)"></rect><rect width="63.6" height="63.6" clip-path="url(&quot;#SvgjsClipPath1042&quot;)" x="678.98" y="199.35" fill="url(#SvgjsPattern1043)" transform="rotate(276.3, 710.78, 231.15)"></rect><path d="M248.19 426.3 L227.62 348.44L282.6719576967796 342.6030423032204z" fill="rgba(245, 0, 87, 1)"></path><path d="M519.98 9.35L507.41 6.93 507-5.87 494.43-8.29 494.03-21.09 481.45-23.5 481.05-36.3M526.07 4.16L513.49 1.74 513.09-11.06 500.52-13.48 500.11-26.28 487.54-28.7 487.13-41.5M532.16-1.04L519.58-3.45 519.18-16.25 506.6-18.67 506.2-31.47 493.62-33.89 493.22-46.69" stroke="rgba(245, 0, 87, 1)" stroke-width="1.95" stroke-dasharray="2, 2"></path><path d="M1078.77 634.33 L1113.3 616.83L1076.6695520835087 606.2145520835089z" fill="rgba(245, 0, 87, 1)"></path><path d="M1306.23 246.39a5.6 5.6 0 1 0-3.35-10.69 5.6 5.6 0 1 0 3.35 10.69zM1301.45 231.12a5.6 5.6 0 1 0-3.34-10.69 5.6 5.6 0 1 0 3.34 10.69zM1296.67 215.85a5.6 5.6 0 1 0-3.34-10.69 5.6 5.6 0 1 0 3.34 10.69zM1291.9 200.58a5.6 5.6 0 1 0-3.35-10.69 5.6 5.6 0 1 0 3.35 10.69zM1331.05 272.16a5.6 5.6 0 1 0-3.34-10.69 5.6 5.6 0 1 0 3.34 10.69zM1326.28 256.88a5.6 5.6 0 1 0-3.35-10.68 5.6 5.6 0 1 0 3.35 10.68zM1321.5 241.61a5.6 5.6 0 1 0-3.35-10.68 5.6 5.6 0 1 0 3.35 10.68zM1316.72 226.34a5.6 5.6 0 1 0-3.34-10.69 5.6 5.6 0 1 0 3.34 10.69zM1355.88 297.92a5.6 5.6 0 1 0-3.35-10.69 5.6 5.6 0 1 0 3.35 10.69zM1351.1 282.65a5.6 5.6 0 1 0-3.34-10.69 5.6 5.6 0 1 0 3.34 10.69zM1346.32 267.38a5.6 5.6 0 1 0-3.34-10.69 5.6 5.6 0 1 0 3.34 10.69zM1341.55 252.11a5.6 5.6 0 1 0-3.35-10.69 5.6 5.6 0 1 0 3.35 10.69z" stroke="rgba(245, 0, 87, 1)" stroke-width="2.71"></path><rect width="83.2" height="83.2" clip-path="url(&quot;#SvgjsClipPath1044&quot;)" x="163.03" y="294.41" fill="url(#SvgjsPattern1045)" transform="rotate(271.7, 204.63, 336.01)"></rect><path d="M612.17 85.07L600.84 79.1 604.17 66.74 592.84 60.77 596.17 48.41 584.84 42.44 588.17 30.08M619.5 81.87L608.17 75.9 611.5 63.54 600.17 57.57 603.5 45.21 592.17 39.24 595.5 26.88M626.83 78.67L615.5 72.7 618.83 60.34 607.5 54.37 610.83 42.01 599.5 36.04 602.83 23.68" stroke="rgba(245, 0, 87, 1)" stroke-width="1" stroke-dasharray="2, 2"></path><path d="M1040.0800000000002 687.91 L1049.92 681.03L1036.5517407072405 676.0217407072405z" stroke="rgba(245, 0, 87, 1)" stroke-width="2.5" stroke-dasharray="3, 3"></path><path d="M502.8 451.56 L641.04 446.81L659.3559616875624 536.6209616875625z" fill="rgba(245, 0, 87, 1)"></path><path d="M1133.65 177.37 L1069.51 143.93L1071.9436097109394 190.28639028906056z" fill="rgba(245, 0, 87, 1)"></path><rect width="228" height="228" clip-path="url(&quot;#SvgjsClipPath1046&quot;)" x="876.42" y="142.42" fill="url(#SvgjsPattern1047)" transform="rotate(355.88, 990.42, 256.42)"></rect><path d="M402.21 194.61a5.6 5.6 0 1 0-1.08-11.15 5.6 5.6 0 1 0 1.08 11.15zM400.67 178.68a5.6 5.6 0 1 0-1.08-11.14 5.6 5.6 0 1 0 1.08 11.14zM399.12 162.76a5.6 5.6 0 1 0-1.08-11.15 5.6 5.6 0 1 0 1.08 11.15zM397.58 146.83a5.6 5.6 0 1 0-1.08-11.14 5.6 5.6 0 1 0 1.08 11.14zM421.23 224.91a5.6 5.6 0 1 0-1.08-11.14 5.6 5.6 0 1 0 1.08 11.14zM419.68 208.99a5.6 5.6 0 1 0-1.08-11.15 5.6 5.6 0 1 0 1.08 11.15zM418.14 193.06a5.6 5.6 0 1 0-1.08-11.14 5.6 5.6 0 1 0 1.08 11.14zM416.59 177.14a5.6 5.6 0 1 0-1.08-11.15 5.6 5.6 0 1 0 1.08 11.15zM440.24 255.22a5.6 5.6 0 1 0-1.08-11.15 5.6 5.6 0 1 0 1.08 11.15zM438.7 239.3a5.6 5.6 0 1 0-1.08-11.15 5.6 5.6 0 1 0 1.08 11.15zM437.15 223.37a5.6 5.6 0 1 0-1.08-11.15 5.6 5.6 0 1 0 1.08 11.15zM435.61 207.44a5.6 5.6 0 1 0-1.08-11.14 5.6 5.6 0 1 0 1.08 11.14z" fill="rgba(245, 0, 87, 1)"></path></g><defs><mask id="SvgjsMask1041"><rect width="1440" height="560" fill="#ffffff"></rect></mask><pattern x="0" y="0" width="6.36" height="6.36" patternUnits="userSpaceOnUse" id="SvgjsPattern1043"><path d="M0 6.36L3.18 0L6.36 6.36" stroke="rgba(245, 0, 87, 1)" fill="none"></path></pattern><clipPath id="SvgjsClipPath1042"><circle r="15.9" cx="710.78" cy="231.15"></circle></clipPath><pattern x="0" y="0" width="8.32" height="8.32" patternUnits="userSpaceOnUse" id="SvgjsPattern1045"><path d="M4.16 1L4.16 7.32M1 4.16L7.32 4.16" stroke="rgba(245, 0, 87, 1)" fill="none" stroke-width="1.33"></path></pattern><clipPath id="SvgjsClipPath1044"><circle r="20.8" cx="204.63" cy="336.01"></circle></clipPath><pattern x="0" y="0" width="6" height="6" patternUnits="userSpaceOnUse" id="SvgjsPattern1047"><path d="M3 1L3 5M1 3L5 3" stroke="rgba(245, 0, 87, 1)" fill="none" stroke-width="1.27"></path></pattern><clipPath id="SvgjsClipPath1046"><circle r="57" cx="990.42" cy="256.42"></circle></clipPath></defs></svg>