<svg xmlns="http://www.w3.org/2000/svg" version="1.1" xmlns:xlink="http://www.w3.org/1999/xlink" xmlns:svgjs="http://svgjs.com/svgjs" width="1440" height="560" preserveAspectRatio="none" viewBox="0 0 1440 560"><g mask="url(&quot;#SvgjsMask1048&quot;)" fill="none"><rect width="1440" height="560" x="0" y="0" fill="rgba(22, 8, 115, 1)"></rect><circle r="55.171416190824715" cx="646.7" cy="459.35" stroke="rgba(245, 0, 87, 1)" stroke-width="2.65" stroke-dasharray="3, 3"></circle><rect width="372.12" height="372.12" clip-path="url(&quot;#SvgjsClipPath1049&quot;)" x="470.81" y="-38.31" fill="url(#SvgjsPattern1050)" transform="rotate(348.86, 656.87, 147.75)"></rect><path d="M467.55 405.26000000000005 L389.15 383.44000000000005L383.8108184781577 438.8891815218423z" fill="rgba(245, 0, 87, 1)"></path><rect width="240" height="240" clip-path="url(&quot;#SvgjsClipPath1051&quot;)" x="327.9" y="-43.31" fill="url(#SvgjsPattern1052)" transform="rotate(345.59, 447.9, 76.69)"></rect><rect width="330.12" height="330.12" clip-path="url(&quot;#SvgjsClipPath1053&quot;)" x="818.49" y="279.31" fill="url(#SvgjsPattern1054)" transform="rotate(118.38, 983.55, 444.37)"></rect><path d="M438.58 132.09a5.6 5.6 0 1 0 2.61-10.89 5.6 5.6 0 1 0-2.61 10.89zM442.3 116.53a5.6 5.6 0 1 0 2.61-10.89 5.6 5.6 0 1 0-2.61 10.89zM446.02 100.97a5.6 5.6 0 1 0 2.6-10.89 5.6 5.6 0 1 0-2.6 10.89zM449.74 85.41a5.6 5.6 0 1 0 2.6-10.89 5.6 5.6 0 1 0-2.6 10.89zM446.71 166.94a5.6 5.6 0 1 0 2.6-10.9 5.6 5.6 0 1 0-2.6 10.9zM450.43 151.37a5.6 5.6 0 1 0 2.6-10.89 5.6 5.6 0 1 0-2.6 10.89zM454.15 135.81a5.6 5.6 0 1 0 2.6-10.89 5.6 5.6 0 1 0-2.6 10.89zM457.86 120.25a5.6 5.6 0 1 0 2.61-10.89 5.6 5.6 0 1 0-2.61 10.89zM454.83 201.78a5.6 5.6 0 1 0 2.6-10.89 5.6 5.6 0 1 0-2.6 10.89zM458.55 186.22a5.6 5.6 0 1 0 2.6-10.9 5.6 5.6 0 1 0-2.6 10.9zM462.27 170.66a5.6 5.6 0 1 0 2.6-10.9 5.6 5.6 0 1 0-2.6 10.9zM465.99 155.09a5.6 5.6 0 1 0 2.6-10.89 5.6 5.6 0 1 0-2.6 10.89z" fill="rgba(245, 0, 87, 1)"></path><rect width="156" height="156" clip-path="url(&quot;#SvgjsClipPath1055&quot;)" x="380.07" y="354.07" fill="url(#SvgjsPattern1056)" transform="rotate(286.49, 458.07, 432.07)"></rect><path d="M818.56 340.66L807.3 346.75 798.88 337.1 787.62 343.2 779.2 333.54 767.94 339.64 759.52 329.99M819.99 332.79L808.72 338.88 800.31 329.23 789.04 335.32 780.63 325.67 769.36 331.76 760.94 322.11M821.41 324.92L810.15 331.01 801.73 321.36 790.47 327.45 782.05 317.8 770.79 323.89 762.37 314.24" stroke="rgba(245, 0, 87, 1)" stroke-width="1" stroke-dasharray="4, 4"></path><circle r="92.3884712173846" cx="1119.9" cy="501.7" fill="rgba(245, 0, 87, 1)"></circle><rect width="144" height="144" clip-path="url(&quot;#SvgjsClipPath1057&quot;)" x="1256.8" y="192.33" fill="url(#SvgjsPattern1058)" transform="rotate(86.15, 1328.8, 264.33)"></rect><rect width="117.03999999999999" height="117.03999999999999" clip-path="url(&quot;#SvgjsClipPath1059&quot;)" x="587.92" y="479.78" fill="url(#SvgjsPattern1060)" transform="rotate(280.24, 646.44, 538.3)"></rect><circle r="56.48275471705967" cx="356.03" cy="34.44" fill="rgba(245, 0, 87, 1)"></circle></g><defs><mask id="SvgjsMask1048"><rect width="1440" height="560" fill="#ffffff"></rect></mask><pattern x="0" y="0" width="372.12" height="8.86" patternUnits="userSpaceOnUse" id="SvgjsPattern1050"><rect width="372.12" height="4.43" x="0" y="0" fill="rgba(245, 0, 87, 1)"></rect><rect width="372.12" height="4.43" x="0" y="4.43" fill="rgba(0, 0, 0, 0)"></rect></pattern><clipPath id="SvgjsClipPath1049"><circle r="93.03" cx="656.87" cy="147.75"></circle></clipPath><pattern x="0" y="0" width="6" height="6" patternUnits="userSpaceOnUse" id="SvgjsPattern1052"><path d="M3 1L3 5M1 3L5 3" stroke="rgba(245, 0, 87, 1)" fill="none" stroke-width="1.84"></path></pattern><clipPath id="SvgjsClipPath1051"><circle r="60" cx="447.9" cy="76.69"></circle></clipPath><pattern x="0" y="0" width="330.12" height="7.86" patternUnits="userSpaceOnUse" id="SvgjsPattern1054"><rect width="330.12" height="3.93" x="0" y="0" fill="rgba(245, 0, 87, 1)"></rect><rect width="330.12" height="3.93" x="0" y="3.93" fill="rgba(0, 0, 0, 0)"></rect></pattern><clipPath id="SvgjsClipPath1053"><circle r="82.53" cx="983.55" cy="444.37"></circle></clipPath><pattern x="0" y="0" width="6" height="6" patternUnits="userSpaceOnUse" id="SvgjsPattern1056"><path d="M0 6L3 0L6 6" stroke="rgba(245, 0, 87, 1)" fill="none"></path></pattern><clipPath id="SvgjsClipPath1055"><circle r="39" cx="458.07" cy="432.07"></circle></clipPath><pattern x="0" y="0" width="6" height="6" patternUnits="userSpaceOnUse" id="SvgjsPattern1058"><path d="M3 1L3 5M1 3L5 3" stroke="rgba(245, 0, 87, 1)" fill="none" stroke-width="1.65"></path></pattern><clipPath id="SvgjsClipPath1057"><circle r="36" cx="1328.8" cy="264.33"></circle></clipPath><pattern x="0" y="0" width="8.36" height="8.36" patternUnits="userSpaceOnUse" id="SvgjsPattern1060"><path d="M0 8.36L4.18 0L8.36 8.36" stroke="rgba(245, 0, 87, 1)" fill="none"></path></pattern><clipPath id="SvgjsClipPath1059"><circle r="29.259999999999998" cx="646.44" cy="538.3"></circle></clipPath></defs></svg>