<svg xmlns="http://www.w3.org/2000/svg" version="1.1" xmlns:xlink="http://www.w3.org/1999/xlink" xmlns:svgjs="http://svgjs.com/svgjs" width="1440" height="560" preserveAspectRatio="none" viewBox="0 0 1440 560"><g mask="url(&quot;#SvgjsMask1061&quot;)" fill="none"><rect width="1440" height="560" x="0" y="0" fill="rgba(22, 8, 115, 1)"></rect><path d="M170.5 417.31 L231.14999999999998 431.21000000000004L237.42753538699264 387.65746461300733z" stroke="rgba(245, 0, 87, 1)" stroke-width="1" stroke-dasharray="4, 4"></path><rect width="180" height="180" clip-path="url(&quot;#SvgjsClipPath1062&quot;)" x="74.59" y="-13.3" fill="url(#SvgjsPattern1063)" transform="rotate(253.54, 164.59, 76.7)"></rect><circle r="85.60129023909934" cx="256.25" cy="447.59" stroke="rgba(245, 0, 87, 1)" stroke-width="2.97" stroke-dasharray="3, 3"></circle><rect width="276" height="276" clip-path="url(&quot;#SvgjsClipPath1064&quot;)" x="-60.72" y="161.58" fill="url(#SvgjsPattern1065)" transform="rotate(87.16, 77.28, 299.58)"></rect><rect width="189" height="189" clip-path="url(&quot;#SvgjsClipPath1066&quot;)" x="156.8" y="99.97" fill="url(#SvgjsPattern1067)" transform="rotate(181.19, 251.3, 194.47)"></rect><path d="M219.49 540.1L219.06 527.3 231.45 524.06 231.01 511.27 243.4 508.03 242.97 495.23 255.36 492M225.91 544.88L225.47 532.08 237.86 528.85 237.43 516.05 249.82 512.81 249.38 500.01 261.77 496.78" stroke="rgba(245, 0, 87, 1)" stroke-width="1" stroke-dasharray="3, 2"></path><rect width="324" height="324" clip-path="url(&quot;#SvgjsClipPath1068&quot;)" x="77.23" y="334.35" fill="url(#SvgjsPattern1069)" transform="rotate(217.79, 239.23, 496.35)"></rect><circle r="46.666666666666664" cx="1257.33" cy="167.55" fill="rgba(245, 0, 87, 1)"></circle><path d="M190.43 294.82a5.6 5.6 0 1 0-11.18 0.64 5.6 5.6 0 1 0 11.18-0.64zM174.45 295.73a5.6 5.6 0 1 0-11.18 0.64 5.6 5.6 0 1 0 11.18-0.64zM158.48 296.65a5.6 5.6 0 1 0-11.18 0.63 5.6 5.6 0 1 0 11.18-0.63zM142.51 297.56a5.6 5.6 0 1 0-11.19 0.64 5.6 5.6 0 1 0 11.19-0.64z" fill="rgba(245, 0, 87, 1)"></path><path d="M787.6199999999999 207.73999999999998 L790.29 248.5L809.8949858174925 207.1800141825074z" fill="rgba(245, 0, 87, 1)"></path><rect width="360" height="360" clip-path="url(&quot;#SvgjsClipPath1070&quot;)" x="180.56" y="-70.66" fill="url(#SvgjsPattern1071)" transform="rotate(279.73, 360.56, 109.34)"></rect><rect width="181.76" height="181.76" clip-path="url(&quot;#SvgjsClipPath1072&quot;)" x="695.58" y="-86.35" fill="url(#SvgjsPattern1073)" transform="rotate(153.91, 786.46, 4.53)"></rect></g><defs><mask id="SvgjsMask1061"><rect width="1440" height="560" fill="#ffffff"></rect></mask><pattern x="0" y="0" width="6" height="6" patternUnits="userSpaceOnUse" id="SvgjsPattern1063"><path d="M0 6L3 0L6 6" stroke="rgba(245, 0, 87, 1)" fill="none"></path></pattern><clipPath id="SvgjsClipPath1062"><circle r="45" cx="164.59" cy="76.7"></circle></clipPath><pattern x="0" y="0" width="6" height="6" patternUnits="userSpaceOnUse" id="SvgjsPattern1065"><path d="M0 6L3 0L6 6" stroke="rgba(245, 0, 87, 1)" fill="none"></path></pattern><clipPath id="SvgjsClipPath1064"><circle r="69" cx="77.28" cy="299.58"></circle></clipPath><pattern x="0" y="0" width="189" height="13.5" patternUnits="userSpaceOnUse" id="SvgjsPattern1067"><rect width="189" height="6.75" x="0" y="0" fill="rgba(245, 0, 87, 1)"></rect><rect width="189" height="6.75" x="0" y="6.75" fill="rgba(0, 0, 0, 0)"></rect></pattern><clipPath id="SvgjsClipPath1066"><circle r="47.25" cx="251.3" cy="194.47"></circle></clipPath><pattern x="0" y="0" width="6" height="6" patternUnits="userSpaceOnUse" id="SvgjsPattern1069"><path d="M0 6L3 0L6 6" stroke="rgba(245, 0, 87, 1)" fill="none"></path></pattern><clipPath id="SvgjsClipPath1068"><circle r="81" cx="239.23" cy="496.35"></circle></clipPath><pattern x="0" y="0" width="6" height="6" patternUnits="userSpaceOnUse" id="SvgjsPattern1071"><path d="M3 1L3 5M1 3L5 3" stroke="rgba(245, 0, 87, 1)" fill="none" stroke-width="1.68"></path></pattern><clipPath id="SvgjsClipPath1070"><circle r="90" cx="360.56" cy="109.34"></circle></clipPath><pattern x="0" y="0" width="181.76" height="11.36" patternUnits="userSpaceOnUse" id="SvgjsPattern1073"><rect width="181.76" height="5.68" x="0" y="0" fill="rgba(245, 0, 87, 1)"></rect><rect width="181.76" height="5.68" x="0" y="5.68" fill="rgba(0, 0, 0, 0)"></rect></pattern><clipPath id="SvgjsClipPath1072"><circle r="45.44" cx="786.46" cy="4.53"></circle></clipPath></defs></svg>